<?xml version="1.0" encoding="utf-8"?>
<!-- Generator: Moho 12.2 build 21774 -->
<!DOCTYPE svg PUBLIC "-//W3C//DTD SVG 1.1//EN" "http://www.w3.org/Graphics/SVG/1.1/DTD/svg11.dtd">
<svg version="1.1" id="Frame_0" xmlns="http://www.w3.org/2000/svg" xmlns:xlink="http://www.w3.org/1999/xlink" width="1280px" height="720px">
<g id="Кот">
<g id="Контур">
<path fill="#828385" fill-rule="evenodd" stroke="none" d="M 888.983 202.446 C 881.375 190.320 874.893 178.225 849.458 152.219 C 824.400 126.598 801.737 110.807 800.865 112.175 C 800.301 111.425 804.544 92.490 799.392 68.800 C 797.618 60.643 791.259 45.189 786.113 36.668 C 777.607 22.586 768.359 15.152 759.165 12.217 C 751.231 9.685 736.353 12.030 727.941 15.531 C 717.426 19.908 711.731 23.633 706.486 27.342 C 696.718 34.250 687.577 42.152 672.870 58.176 C 658.867 73.432 646.332 92.548 646.329 92.552 C 640.860 83.614 594.016 99.776 555.002 108.763 C 508.565 119.459 490.881 135.349 448.866 139.158 C 433.255 140.573 430.284 135.275 407.934 136.445 C 383.769 137.710 378.748 144.105 364.239 144.064 C 344.964 144.008 312.863 134.193 306.358 133.010 C 301.755 130.553 291.595 126.004 264.406 113.699 C 241.116 103.159 217.570 97.041 204.065 103.414 C 195.186 107.603 190.622 118.970 190.465 135.621 C 190.343 148.584 203.588 186.384 217.240 212.194 C 232.173 240.424 253.379 253.509 253.243 266.098 C 252.977 290.867 260.575 303.147 257.536 314.544 C 252.823 332.213 224.459 345.788 208.777 379.709 C 200.886 396.777 200.600 412.255 199.350 420.737 C 195.082 449.699 225.832 525.023 225.648 531.017 C 225.651 531.014 240.498 515.296 258.642 508.195 C 277.455 500.831 291.027 501.673 299.839 502.419 C 306.891 503.016 328.236 510.656 331.663 512.206 C 332.487 512.578 337.816 515.741 338.593 516.202 C 344.102 519.468 363.736 529.498 386.875 545.904 C 408.881 561.507 410.853 568.684 428.748 579.860 C 443.800 589.261 452.805 591.514 469.787 599.150 C 485.199 606.080 507.433 613.065 559.547 610.665 C 602.317 608.695 628.061 589.287 656.201 583.333 C 683.060 577.650 677.339 589.222 713.711 586.125 C 754.314 582.668 860.785 546.898 894.088 514.206 C 907.622 500.919 917.848 491.969 928.600 467.616 C 937.226 448.076 943.030 427.981 945.456 410.017 C 948.088 390.542 945.666 374.549 945.384 369.238 C 944.875 359.654 941.972 325.465 928.875 285.898 C 914.615 242.821 899.994 219.994 888.983 202.446 Z"/>
<path fill="none" stroke="#6d6f71" stroke-width="1" stroke-linecap="butt" stroke-linejoin="round" d="M 849.458 152.219 C 824.400 126.598 801.737 110.807 800.865 112.175 "/>
<path fill="none" stroke="#6d6f71" stroke-width="1" stroke-linecap="butt" stroke-linejoin="round" d="M 225.648 531.017 C 225.651 531.014 240.498 515.296 258.642 508.195 "/>
<path fill="none" stroke="#6d6f71" stroke-width="1" stroke-linecap="butt" stroke-linejoin="round" d="M 258.642 508.195 C 277.455 500.831 291.027 501.673 299.839 502.419 "/>
<path fill="none" stroke="#6d6f71" stroke-width="1" stroke-linecap="butt" stroke-linejoin="round" d="M 299.839 502.419 C 306.891 503.016 328.236 510.656 331.663 512.206 "/>
<path fill="none" stroke="#6d6f71" stroke-width="1" stroke-linecap="butt" stroke-linejoin="round" d="M 331.663 512.206 C 332.487 512.578 337.816 515.741 338.593 516.202 "/>
<path fill="none" stroke="#6d6f71" stroke-width="1" stroke-linecap="butt" stroke-linejoin="round" d="M 338.593 516.202 C 344.102 519.468 363.736 529.498 386.875 545.904 "/>
<path fill="none" stroke="#6d6f71" stroke-width="1" stroke-linecap="butt" stroke-linejoin="round" d="M 386.875 545.904 C 408.881 561.507 410.853 568.684 428.748 579.860 "/>
<path fill="none" stroke="#6d6f71" stroke-width="1" stroke-linecap="butt" stroke-linejoin="round" d="M 428.748 579.860 C 443.800 589.261 452.805 591.514 469.787 599.150 "/>
<path fill="none" stroke="#6d6f71" stroke-width="1" stroke-linecap="butt" stroke-linejoin="round" d="M 469.787 599.150 C 485.199 606.080 507.433 613.065 559.547 610.665 "/>
<path fill="none" stroke="#6d6f71" stroke-width="1" stroke-linecap="butt" stroke-linejoin="round" d="M 559.547 610.665 C 602.317 608.695 628.061 589.287 656.201 583.333 "/>
<path fill="none" stroke="#6d6f71" stroke-width="1" stroke-linecap="butt" stroke-linejoin="round" d="M 656.201 583.333 C 683.060 577.650 677.339 589.222 713.711 586.125 "/>
<path fill="none" stroke="#6d6f71" stroke-width="1" stroke-linecap="butt" stroke-linejoin="round" d="M 713.711 586.125 C 754.314 582.668 860.785 546.898 894.088 514.206 "/>
<path fill="none" stroke="#6d6f71" stroke-width="1" stroke-linecap="butt" stroke-linejoin="round" d="M 894.088 514.206 C 907.622 500.919 917.848 491.969 928.600 467.616 "/>
<path fill="none" stroke="#6d6f71" stroke-width="1" stroke-linecap="butt" stroke-linejoin="round" d="M 928.600 467.616 C 937.226 448.076 943.030 427.981 945.456 410.017 "/>
<path fill="none" stroke="#6d6f71" stroke-width="1" stroke-linecap="butt" stroke-linejoin="round" d="M 945.456 410.017 C 948.088 390.542 945.666 374.549 945.384 369.238 "/>
<path fill="none" stroke="#6d6f71" stroke-width="1" stroke-linecap="butt" stroke-linejoin="round" d="M 945.384 369.238 C 944.875 359.654 941.972 325.465 928.875 285.898 "/>
<path fill="none" stroke="#6d6f71" stroke-width="1" stroke-linecap="butt" stroke-linejoin="round" d="M 928.875 285.898 C 914.615 242.821 899.994 219.994 888.983 202.446 "/>
<path fill="none" stroke="#6d6f71" stroke-width="1" stroke-linecap="butt" stroke-linejoin="round" d="M 888.983 202.446 C 881.375 190.320 874.893 178.225 849.458 152.219 "/>
<path fill="#6d6f71" fill-rule="evenodd" stroke="none" d="M 849.458 152.219 C 824.400 126.598 801.737 110.807 800.865 112.175 C 804.108 116.492 1029.061 88.872 1050.239 127.613 C 1119.458 254.233 1108.399 374.943 1110.465 391.053 C 1111.324 397.751 1100.228 476.774 1088.273 511.525 C 1070.317 563.722 1041.276 643.476 1001.181 673.606 C 956.199 707.408 599.029 717.024 475.067 698.551 C 436.424 692.792 363.620 648.094 320.253 644.409 C 306.103 643.207 308.211 644.287 304.209 645.306 C 297.614 646.985 295.663 647.891 269.260 652.353 C 260.356 653.858 245.010 651.772 235.124 648.906 C 225.170 646.020 209.998 640.588 204.232 633.444 C 195.920 623.146 192.321 593.666 197.087 574.432 C 204.223 545.634 225.467 536.884 225.648 531.017 C 225.651 531.014 240.498 515.296 258.642 508.195 C 277.455 500.831 291.027 501.673 299.839 502.419 C 306.891 503.016 328.236 510.656 331.663 512.206 C 332.487 512.578 337.816 515.741 338.593 516.202 C 344.102 519.468 363.736 529.498 386.875 545.904 C 408.881 561.507 410.853 568.684 428.748 579.860 C 443.800 589.261 452.805 591.514 469.787 599.150 C 485.199 606.080 507.433 613.065 559.547 610.665 C 602.317 608.695 628.061 589.287 656.201 583.333 C 683.060 577.650 677.339 589.222 713.711 586.125 C 754.314 582.668 860.785 546.898 894.088 514.206 C 907.622 500.919 917.848 491.969 928.600 467.616 C 937.226 448.076 943.030 427.981 945.456 410.017 C 948.088 390.542 945.666 374.549 945.384 369.238 C 944.875 359.654 941.972 325.465 928.875 285.898 C 914.615 242.821 899.994 219.994 888.983 202.446 C 881.375 190.320 874.893 178.225 849.458 152.219 Z"/>
<path fill="#dfe0e2" fill-rule="evenodd" fill-opacity="0.105882" stroke="none" d="M 928.600 467.616 C 937.226 448.076 943.030 427.981 945.456 410.017 C 945.451 410.020 907.840 433.744 890.186 440.655 C 870.266 448.453 820.876 457.385 820.869 457.387 C 808.435 469.614 808.612 475.594 772.814 490.093 C 700.872 519.232 685.922 511.183 657.154 506.500 C 644.653 504.465 626.707 494.357 610.772 485.878 C 601.357 480.868 594.884 478.993 585.246 470.131 C 574.108 459.891 571.191 442.487 564.799 442.148 C 560.755 441.933 553.986 449.620 548.515 456.838 C 542.988 464.128 541.076 475.970 538.678 476.686 C 538.678 476.687 536.844 479.049 536.048 479.729 C 533.741 481.699 530.556 480.530 525.947 485.542 C 521.729 490.130 524.199 492.610 520.590 497.034 C 517.721 500.550 514.400 501.595 513.692 502.270 C 511.767 504.105 504.454 516.134 499.001 520.663 C 498.361 521.194 497.532 521.494 496.535 521.547 C 495.683 521.593 494.977 521.371 494.336 521.125 C 488.689 518.955 486.271 515.230 478.184 509.778 C 473.173 506.401 470.427 507.873 465.868 505.099 C 462.843 503.259 460.853 499.413 460.211 498.691 C 459.249 497.608 451.459 489.455 451.660 489.135 C 448.824 489.114 446.095 477.617 440.399 469.173 C 434.501 460.428 438.885 453.096 425.590 450.624 C 415.636 448.774 412.726 459.449 404.126 470.074 C 397.008 478.868 389.734 485.357 391.963 490.733 C 393.834 495.249 395.259 494.082 399.117 495.923 C 404.142 498.322 409.309 496.731 410.262 498.807 C 413.078 504.934 392.237 498.510 376.440 502.121 C 357.669 506.411 338.597 516.201 338.593 516.202 C 344.102 519.468 363.736 529.498 386.875 545.904 C 408.881 561.507 410.853 568.684 428.748 579.860 C 443.800 589.261 452.805 591.514 469.787 599.150 C 485.199 606.080 507.433 613.065 559.547 610.665 C 602.317 608.695 628.061 589.287 656.201 583.333 C 683.060 577.650 677.339 589.222 713.711 586.125 C 754.314 582.668 860.785 546.898 894.088 514.206 C 907.622 500.919 917.848 491.969 928.600 467.616 Z"/>
<path fill="#dfe0e2" fill-opacity="0.188235" d="M 407.418 333.334 C 407.438 333.424 399.787 308.102 399.542 291.049 L 403.669 290.995 C 403.861 307.433 409.594 332.856 409.615 332.954 L 407.418 333.334 Z"/>
<path fill="#dfe0e2" fill-opacity="0.188235" d="M 399.542 291.049 C 399.337 274.619 402.682 263.540 405.994 249.741 L 408.402 250.319 C 405.093 264.105 403.451 274.964 403.669 290.995 L 399.542 291.049 Z"/>
<path fill="#dfe0e2" fill-opacity="0.188235" d="M 446.323 341.589 C 446.370 341.766 431.424 304.115 434.400 268.711 L 438.512 269.063 C 435.507 303.507 448.153 341.113 448.201 341.305 L 446.323 341.589 Z"/>
<path fill="#dfe0e2" fill-opacity="0.188235" d="M 434.400 268.711 C 438.505 220.996 453.844 185.271 453.821 185.331 L 456.317 186.199 C 456.290 186.269 442.533 221.898 438.512 269.063 L 434.400 268.711 Z"/>
<path fill="#dfe0e2" fill-opacity="0.188235" d="M 522.675 193.052 C 522.638 193.188 505.894 238.349 508.780 288.486 L 504.659 288.719 C 501.819 237.694 521.567 192.754 521.533 192.870 L 522.675 193.052 Z"/>
<path fill="#dfe0e2" fill-opacity="0.188235" d="M 508.780 288.486 C 510.180 313.855 519.693 335.982 518.725 335.371 L 518.725 337.518 C 517.756 336.907 506.176 314.860 504.659 288.719 L 508.780 288.486 Z"/>
<path fill="#dfe0e2" fill-opacity="0.188235" d="M 553.372 316.701 C 553.460 316.965 548.284 306.434 547.052 292.922 L 551.164 292.554 C 552.294 305.457 556.257 315.737 556.347 316.005 L 553.372 316.701 Z"/>
<path fill="#dfe0e2" fill-opacity="0.188235" d="M 547.052 292.922 C 544.515 264.190 552.833 240.516 552.807 240.651 L 554.206 240.766 C 554.179 240.911 548.628 264.537 551.164 292.554 L 547.052 292.922 Z"/>
<path fill="#dfe0e2" fill-opacity="0.188235" d="M 545.492 337.319 C 545.438 337.513 549.672 321.605 553.579 315.520 L 556.139 317.187 C 552.562 322.596 549.459 338.442 549.403 338.641 L 545.492 337.319 Z"/>
<path fill="#dfe0e2" fill-opacity="0.188235" d="M 553.579 315.520 C 563.689 300.018 576.616 288.894 601.015 275.963 L 602.368 278.516 C 578.182 291.322 566.006 302.008 556.139 317.187 L 553.579 315.520 Z"/>
<path fill="#1e1f21" d="M 658.153 325.733 C 652.804 316.732 651.049 315.535 635.711 310.219 L 637.064 306.319 C 652.584 311.703 656.132 314.290 661.700 323.621 L 658.153 325.733 Z"/>
<path fill="#1e1f21" d="M 636.014 310.299 C 622.077 307.729 620.769 308.808 611.965 310.211 L 611.317 306.135 C 619.824 304.789 622.453 303.618 636.760 306.239 L 636.014 310.299 Z"/>
<path fill="none" stroke="#1e1f21" stroke-width="1" stroke-linecap="butt" stroke-linejoin="round" d="M 636.014 310.299 L 636.760 306.239 "/>
<path fill="#1e1f21" d="M 611.965 310.211 C 602.099 311.741 592.335 317.311 584.614 321.702 L 582.574 318.114 C 590.296 313.722 600.696 307.858 611.317 306.135 L 611.965 310.211 Z"/>
<path fill="none" stroke="#1e1f21" stroke-width="1" stroke-linecap="butt" stroke-linejoin="round" d="M 611.965 310.211 L 611.317 306.135 "/>
<path fill="#1e1f21" d="M 584.614 321.702 C 582.558 322.853 579.443 323.827 576.829 326.242 L 574.062 323.179 C 577.332 320.280 580.985 319.036 582.574 318.114 L 584.614 321.702 Z"/>
<path fill="none" stroke="#1e1f21" stroke-width="1" stroke-linecap="butt" stroke-linejoin="round" d="M 584.614 321.702 L 582.574 318.114 "/>
<path fill="#1e1f21" d="M 576.829 326.242 C 567.588 334.487 560.946 350.739 566.921 366.980 L 563.035 368.374 C 556.819 350.635 564.107 332.268 574.062 323.179 L 576.829 326.242 Z"/>
<path fill="none" stroke="#1e1f21" stroke-width="1" stroke-linecap="butt" stroke-linejoin="round" d="M 576.829 326.242 L 574.062 323.179 "/>
<path fill="#1e1f21" d="M 566.921 366.980 C 568.743 372.074 565.252 369.152 569.170 371.374 L 565.725 373.648 C 567.496 372.616 564.958 373.722 563.035 368.374 L 566.921 366.980 Z"/>
<path fill="none" stroke="#1e1f21" stroke-width="1" stroke-linecap="butt" stroke-linejoin="round" d="M 566.921 366.980 L 563.035 368.374 "/>
<path fill="#1e1f21" d="M 569.170 371.374 C 572.851 377.004 579.316 382.222 584.820 384.775 L 583.071 388.514 C 577.059 385.678 569.841 379.829 565.725 373.648 L 569.170 371.374 Z"/>
<path fill="none" stroke="#1e1f21" stroke-width="1" stroke-linecap="butt" stroke-linejoin="round" d="M 569.170 371.374 L 565.725 373.648 "/>
<path fill="#1e1f21" d="M 584.820 384.775 C 593.139 388.714 604.815 389.643 615.432 387.095 L 616.385 391.111 C 605.101 393.761 592.173 392.727 583.071 388.514 L 584.820 384.775 Z"/>
<path fill="none" stroke="#1e1f21" stroke-width="1" stroke-linecap="butt" stroke-linejoin="round" d="M 584.820 384.775 L 583.071 388.514 "/>
<path fill="#1e1f21" d="M 615.432 387.095 C 629.459 383.784 641.810 377.091 649.651 365.693 L 653.043 368.047 C 644.556 380.173 630.939 387.638 616.385 391.111 L 615.432 387.095 Z"/>
<path fill="none" stroke="#1e1f21" stroke-width="1" stroke-linecap="butt" stroke-linejoin="round" d="M 615.432 387.095 L 616.385 391.111 "/>
<path fill="#1e1f21" d="M 649.651 365.693 C 657.930 353.791 664.256 338.874 658.044 325.524 L 661.808 323.830 C 668.384 338.898 661.569 355.738 653.043 368.047 L 649.651 365.693 Z"/>
<path fill="none" stroke="#1e1f21" stroke-width="1" stroke-linecap="butt" stroke-linejoin="round" d="M 649.651 365.693 L 653.043 368.047 "/>
<path fill="#1e1f21" d="M 233.161 649.544 C 233.285 649.841 217.210 618.384 215.107 593.478 L 219.221 593.139 C 221.138 617.115 236.959 647.960 237.087 648.268 L 233.161 649.544 Z"/>
<path fill="none" stroke="#1e1f21" stroke-width="1" stroke-linecap="butt" stroke-linejoin="round" d="M 233.161 649.544 L 237.087 648.268 "/>
<path fill="#1e1f21" d="M 215.107 593.478 C 213.969 579.011 219.183 565.323 228.433 553.431 L 231.688 555.970 C 222.768 567.370 218.056 579.589 219.221 593.139 L 215.107 593.478 Z"/>
<path fill="none" stroke="#1e1f21" stroke-width="1" stroke-linecap="butt" stroke-linejoin="round" d="M 215.107 593.478 L 219.221 593.139 "/>
<path fill="#1e1f21" d="M 228.433 553.431 C 239.081 539.982 267.699 528.680 267.825 528.635 L 269.089 532.564 C 269.210 532.521 241.276 543.478 231.688 555.970 L 228.433 553.431 Z"/>
<path fill="none" stroke="#1e1f21" stroke-width="1" stroke-linecap="butt" stroke-linejoin="round" d="M 228.433 553.431 L 231.688 555.970 "/>
<path fill="#1e1f21" d="M 314.335 551.770 C 313.846 552.318 279.555 578.907 281.336 604.730 L 277.214 604.956 C 276.039 576.745 311.306 549.063 310.823 549.600 L 314.335 551.770 Z"/>
<path fill="none" stroke="#1e1f21" stroke-width="1" stroke-linecap="butt" stroke-linejoin="round" d="M 314.335 551.770 L 310.823 549.600 "/>
<path fill="#1e1f21" d="M 281.336 604.730 C 282.351 627.876 305.382 643.607 305.597 643.779 L 302.820 646.833 C 303.032 647.001 278.837 630.042 277.214 604.956 L 281.336 604.730 Z"/>
<path fill="none" stroke="#1e1f21" stroke-width="1" stroke-linecap="butt" stroke-linejoin="round" d="M 281.336 604.730 L 277.214 604.956 "/>
<path fill="#1e1f21" d="M 303.700 643.306 C 306.679 642.904 306.124 641.143 320.428 642.353 L 320.078 646.466 C 306.082 645.271 309.744 645.670 304.718 647.306 L 303.700 643.306 Z"/>
<path fill="none" stroke="#1e1f21" stroke-width="1" stroke-linecap="butt" stroke-linejoin="round" d="M 303.700 643.306 L 304.718 647.306 "/>
<path fill="#1e1f21" d="M 320.428 642.353 C 364.413 646.189 437.275 690.912 475.372 696.510 L 474.763 700.592 C 435.573 694.672 362.826 649.999 320.078 646.466 L 320.428 642.353 Z"/>
<path fill="none" stroke="#1e1f21" stroke-width="1" stroke-linecap="butt" stroke-linejoin="round" d="M 320.428 642.353 L 320.078 646.466 "/>
<path fill="#1e1f21" d="M 475.372 696.510 C 599.067 714.961 955.978 705.356 999.941 671.956 L 1002.420 675.256 C 956.421 709.460 598.991 719.088 474.763 700.592 L 475.372 696.510 Z"/>
<path fill="none" stroke="#1e1f21" stroke-width="1" stroke-linecap="butt" stroke-linejoin="round" d="M 475.372 696.510 L 474.763 700.592 "/>
<path fill="#1e1f21" d="M 999.941 671.956 C 1039.529 642.377 1068.372 563.030 1086.321 510.854 L 1090.225 512.197 C 1072.261 564.415 1043.023 644.575 1002.420 675.256 L 999.941 671.956 Z"/>
<path fill="none" stroke="#1e1f21" stroke-width="1" stroke-linecap="butt" stroke-linejoin="round" d="M 999.941 671.956 L 1002.420 675.256 "/>
<path fill="#1e1f21" d="M 1086.321 510.854 C 1098.205 476.365 1109.274 397.506 1108.418 391.316 L 1112.512 390.791 C 1113.373 397.995 1102.251 477.184 1090.225 512.197 L 1086.321 510.854 Z"/>
<path fill="none" stroke="#1e1f21" stroke-width="1" stroke-linecap="butt" stroke-linejoin="round" d="M 1086.321 510.854 L 1090.225 512.197 "/>
<path fill="#1e1f21" d="M 1108.418 391.316 C 1106.340 374.808 1117.449 254.705 1048.428 128.603 L 1052.050 126.623 C 1121.467 253.760 1110.459 375.078 1112.512 390.791 L 1108.418 391.316 Z"/>
<path fill="none" stroke="#1e1f21" stroke-width="1" stroke-linecap="butt" stroke-linejoin="round" d="M 1108.418 391.316 L 1112.512 390.791 "/>
<path fill="#1e1f21" d="M 1048.428 128.603 C 1028.968 90.934 804.317 118.546 799.214 113.415 L 802.515 110.935 C 803.898 114.439 1029.154 86.810 1052.050 126.623 L 1048.428 128.603 Z"/>
<path fill="none" stroke="#1e1f21" stroke-width="1" stroke-linecap="butt" stroke-linejoin="round" d="M 1048.428 128.603 L 1052.050 126.623 "/>
<path fill="#1e1f21" d="M 799.124 111.066 C 802.815 109.047 825.752 125.039 850.934 150.776 L 847.982 153.662 C 823.047 128.157 800.658 112.567 802.605 113.284 L 799.124 111.066 Z"/>
<path fill="none" stroke="#1e1f21" stroke-width="1" stroke-linecap="butt" stroke-linejoin="round" d="M 799.124 111.066 L 802.605 113.284 "/>
<path fill="#1e1f21" d="M 850.934 150.776 C 876.475 176.900 883.159 189.282 890.731 201.349 L 887.234 203.543 C 879.591 191.358 873.311 179.550 847.982 153.662 L 850.934 150.776 Z"/>
<path fill="none" stroke="#1e1f21" stroke-width="1" stroke-linecap="butt" stroke-linejoin="round" d="M 850.934 150.776 L 847.982 153.662 "/>
<path fill="#1e1f21" d="M 890.731 201.349 C 901.736 218.887 916.506 241.992 930.834 285.249 L 926.915 286.546 C 912.725 243.649 898.251 221.100 887.234 203.543 L 890.731 201.349 Z"/>
<path fill="none" stroke="#1e1f21" stroke-width="1" stroke-linecap="butt" stroke-linejoin="round" d="M 890.731 201.349 L 887.234 203.543 "/>
<path fill="#1e1f21" d="M 930.834 285.249 C 943.989 325.027 946.933 359.494 947.445 369.129 L 943.323 369.348 C 942.817 359.814 939.955 325.903 926.915 286.546 L 930.834 285.249 Z"/>
<path fill="none" stroke="#1e1f21" stroke-width="1" stroke-linecap="butt" stroke-linejoin="round" d="M 930.834 285.249 L 926.915 286.546 "/>
<path fill="#1e1f21" d="M 947.239 369.140 C 947.509 374.316 950.152 390.554 947.502 410.294 L 943.411 409.741 C 946.024 390.530 943.824 374.783 943.529 369.337 L 947.239 369.140 Z"/>
<path fill="none" stroke="#1e1f21" stroke-width="1" stroke-linecap="butt" stroke-linejoin="round" d="M 947.239 369.140 L 943.529 369.337 "/>
<path fill="#1e1f21" d="M 947.502 410.293 C 945.048 428.418 938.971 448.712 930.299 468.366 L 926.900 466.866 C 935.480 447.441 941.013 427.545 943.411 409.741 L 947.502 410.293 Z"/>
<path fill="none" stroke="#1e1f21" stroke-width="1" stroke-linecap="butt" stroke-linejoin="round" d="M 947.502 410.293 L 943.411 409.741 "/>
<path fill="#1e1f21" d="M 930.488 468.449 C 919.595 493.069 909.033 502.426 895.534 515.679 L 892.642 512.733 C 906.212 499.413 916.102 490.869 926.711 466.782 L 930.488 468.449 Z"/>
<path fill="none" stroke="#1e1f21" stroke-width="1" stroke-linecap="butt" stroke-linejoin="round" d="M 930.488 468.449 L 926.711 466.782 "/>
<path fill="#1e1f21" d="M 895.534 515.679 C 861.693 548.752 754.845 584.663 713.886 588.182 L 713.536 584.069 C 753.782 580.674 859.878 545.045 892.642 512.733 L 895.534 515.679 Z"/>
<path fill="none" stroke="#1e1f21" stroke-width="1" stroke-linecap="butt" stroke-linejoin="round" d="M 895.534 515.679 L 892.642 512.733 "/>
<path fill="#1e1f21" d="M 713.886 588.182 C 676.789 591.211 682.506 579.639 656.629 585.353 L 655.774 581.314 C 683.614 575.662 677.889 587.233 713.536 584.069 L 713.886 588.182 Z"/>
<path fill="none" stroke="#1e1f21" stroke-width="1" stroke-linecap="butt" stroke-linejoin="round" d="M 713.886 588.182 L 713.536 584.069 "/>
<path fill="#1e1f21" d="M 656.629 585.353 C 628.940 591.155 602.932 610.666 559.642 612.727 L 559.452 608.603 C 601.702 606.725 627.182 587.420 655.774 581.314 L 656.629 585.353 Z"/>
<path fill="none" stroke="#1e1f21" stroke-width="1" stroke-linecap="butt" stroke-linejoin="round" d="M 656.629 585.353 L 655.774 581.314 "/>
<path fill="#1e1f21" d="M 559.642 612.727 C 507.306 615.126 484.483 608.016 468.941 601.032 L 470.634 597.267 C 485.914 604.144 507.560 611.005 559.452 608.603 L 559.642 612.727 Z"/>
<path fill="none" stroke="#1e1f21" stroke-width="1" stroke-linecap="butt" stroke-linejoin="round" d="M 559.642 612.727 L 559.452 608.603 "/>
<path fill="#1e1f21" d="M 468.941 601.032 C 452.071 593.443 442.900 591.119 427.655 581.611 L 429.841 578.110 C 444.700 587.403 453.539 589.584 470.633 597.267 L 468.941 601.032 Z"/>
<path fill="none" stroke="#1e1f21" stroke-width="1" stroke-linecap="butt" stroke-linejoin="round" d="M 468.941 601.032 L 470.633 597.267 "/>
<path fill="#1e1f21" d="M 427.655 581.611 C 409.452 570.200 407.459 563.004 385.681 547.588 L 388.068 544.220 C 410.303 560.011 412.253 567.168 429.841 578.110 L 427.655 581.611 Z"/>
<path fill="none" stroke="#1e1f21" stroke-width="1" stroke-linecap="butt" stroke-linejoin="round" d="M 427.655 581.611 L 429.841 578.110 "/>
<path fill="#1e1f21" d="M 385.681 547.588 C 362.651 531.253 343.137 521.293 337.541 517.978 L 339.646 514.427 C 345.066 517.644 364.821 527.742 388.068 544.220 L 385.681 547.588 Z"/>
<path fill="none" stroke="#1e1f21" stroke-width="1" stroke-linecap="butt" stroke-linejoin="round" d="M 385.681 547.588 L 388.068 544.220 "/>
<path fill="#1e1f21" d="M 337.870 514.269 C 337.655 514.365 356.950 504.476 375.980 500.109 L 376.900 504.133 C 358.389 508.345 339.540 518.037 339.316 518.136 L 337.870 514.269 Z"/>
<path fill="none" stroke="#1e1f21" stroke-width="1" stroke-linecap="butt" stroke-linejoin="round" d="M 337.870 514.269 L 339.316 518.136 "/>
<path fill="#1e1f21" d="M 375.980 500.109 C 392.395 496.452 413.112 502.870 408.387 499.668 L 412.138 497.945 C 413.044 506.998 392.079 500.568 376.900 504.133 L 375.980 500.109 Z"/>
<path fill="none" stroke="#1e1f21" stroke-width="1" stroke-linecap="butt" stroke-linejoin="round" d="M 375.980 500.109 L 376.900 504.133 "/>
<path fill="#1e1f21" d="M 408.387 499.668 C 409.146 498.788 403.979 500.379 398.228 497.786 L 400.006 494.060 C 404.305 496.264 409.472 494.673 412.138 497.945 L 408.387 499.668 Z"/>
<path fill="none" stroke="#1e1f21" stroke-width="1" stroke-linecap="butt" stroke-linejoin="round" d="M 408.387 499.668 L 412.138 497.945 "/>
<path fill="#1e1f21" d="M 398.228 497.786 C 394.998 496.129 392.364 496.697 390.056 491.524 L 393.870 489.943 C 395.305 493.801 395.520 492.034 400.006 494.060 L 398.228 497.786 Z"/>
<path fill="none" stroke="#1e1f21" stroke-width="1" stroke-linecap="butt" stroke-linejoin="round" d="M 398.228 497.786 L 400.006 494.060 "/>
<path fill="#1e1f21" d="M 390.056 491.524 C 387.835 484.550 395.505 477.453 402.521 468.775 L 405.730 471.372 C 398.510 480.282 391.634 486.165 393.870 489.943 L 390.056 491.524 Z"/>
<path fill="none" stroke="#1e1f21" stroke-width="1" stroke-linecap="butt" stroke-linejoin="round" d="M 390.056 491.524 L 393.870 489.943 "/>
<path fill="#1e1f21" d="M 402.521 468.775 C 410.910 458.468 414.469 447.072 425.968 448.595 L 425.213 452.653 C 416.804 450.476 414.542 460.430 405.730 471.372 L 402.521 468.775 Z"/>
<path fill="none" stroke="#1e1f21" stroke-width="1" stroke-linecap="butt" stroke-linejoin="round" d="M 402.521 468.775 L 405.730 471.372 "/>
<path fill="#1e1f21" d="M 423.638 451.293 C 420.542 440.607 432.920 428.300 433.012 419.534 L 437.137 419.691 C 436.491 430.369 424.337 442.232 427.543 449.956 L 423.638 451.293 Z"/>
<path fill="none" stroke="#1e1f21" stroke-width="1" stroke-linecap="butt" stroke-linejoin="round" d="M 423.638 451.293 L 427.543 449.956 "/>
<path fill="#1e1f21" d="M 433.012 419.534 C 433.403 410.997 426.605 390.759 426.545 390.541 L 430.578 389.659 C 430.519 389.447 437.434 410.107 437.137 419.691 L 433.012 419.534 Z"/>
<path fill="none" stroke="#1e1f21" stroke-width="1" stroke-linecap="butt" stroke-linejoin="round" d="M 433.012 419.534 L 437.137 419.691 "/>
<path fill="#1e1f21" d="M 430.546 390.667 C 426.369 404.575 407.800 416.548 391.393 418.073 L 391.030 413.961 C 406.331 412.690 423.265 401.854 426.577 389.534 L 430.546 390.667 Z"/>
<path fill="none" stroke="#1e1f21" stroke-width="1" stroke-linecap="butt" stroke-linejoin="round" d="M 430.546 390.667 L 426.577 389.534 "/>
<path fill="#1e1f21" d="M 391.393 418.073 C 374.358 419.481 355.482 410.101 346.811 397.349 L 350.239 395.048 C 358.079 406.892 375.239 415.448 391.030 413.961 L 391.393 418.073 Z"/>
<path fill="none" stroke="#1e1f21" stroke-width="1" stroke-linecap="butt" stroke-linejoin="round" d="M 391.393 418.073 L 391.030 413.961 "/>
<path fill="#1e1f21" d="M 346.811 397.349 C 339.771 386.776 336.840 371.558 343.997 356.430 L 347.718 358.217 C 340.925 372.151 343.609 385.256 350.239 395.048 L 346.811 397.349 Z"/>
<path fill="none" stroke="#1e1f21" stroke-width="1" stroke-linecap="butt" stroke-linejoin="round" d="M 346.811 397.349 L 350.239 395.048 "/>
<path fill="#1e1f21" d="M 343.997 356.430 C 351.418 341.289 365.426 336.361 376.580 333.490 L 377.608 337.488 C 366.616 340.314 354.248 344.295 347.718 358.217 L 343.997 356.430 Z"/>
<path fill="none" stroke="#1e1f21" stroke-width="1" stroke-linecap="butt" stroke-linejoin="round" d="M 343.997 356.430 L 347.718 358.217 "/>
<path fill="#1e1f21" d="M 376.580 333.490 C 377.700 333.245 389.872 332.939 401.285 341.485 L 398.788 344.772 C 388.502 336.833 377.905 337.368 377.608 337.488 L 376.580 333.490 Z"/>
<path fill="none" stroke="#1e1f21" stroke-width="1" stroke-linecap="butt" stroke-linejoin="round" d="M 376.580 333.490 L 377.608 337.488 "/>
<path fill="#1e1f21" d="M 401.285 341.485 C 410.842 348.745 414.631 352.093 417.407 355.761 L 414.109 358.244 C 411.614 354.910 408.278 351.980 398.788 344.772 L 401.285 341.485 Z"/>
<path fill="none" stroke="#1e1f21" stroke-width="1" stroke-linecap="butt" stroke-linejoin="round" d="M 401.285 341.485 L 398.788 344.772 "/>
<path fill="#1e1f21" d="M 417.407 355.761 C 425.526 366.548 433.504 379.436 430.546 390.667 L 426.577 389.534 C 429.466 380.290 422.125 368.888 414.109 358.244 L 417.407 355.761 Z"/>
<path fill="none" stroke="#1e1f21" stroke-width="1" stroke-linecap="butt" stroke-linejoin="round" d="M 417.407 355.761 L 414.109 358.244 "/>
<path fill="#1e1f21" d="M 496.946 520.853 C 496.968 521.021 495.232 511.171 495.422 504.106 L 499.548 504.226 C 499.343 510.794 501.033 520.302 501.056 520.473 L 496.946 520.853 Z"/>
<path fill="none" stroke="#1e1f21" stroke-width="1" stroke-linecap="butt" stroke-linejoin="round" d="M 496.946 520.853 L 501.056 520.473 "/>
<path fill="#1e1f21" d="M 495.422 504.106 C 495.515 501.594 496.509 497.659 496.471 497.845 L 500.548 498.489 C 500.510 498.677 499.584 502.289 499.548 504.226 L 495.422 504.106 Z"/>
<path fill="none" stroke="#1e1f21" stroke-width="1" stroke-linecap="butt" stroke-linejoin="round" d="M 495.422 504.106 L 499.548 504.226 "/>
<path fill="#1e1f21" d="M 224.481 529.314 C 224.150 529.597 239.324 513.598 257.889 506.272 L 259.394 510.117 C 241.672 516.993 227.151 532.432 226.814 532.719 L 224.481 529.314 Z"/>
<path fill="none" stroke="#1e1f21" stroke-width="1" stroke-linecap="butt" stroke-linejoin="round" d="M 224.481 529.314 L 226.814 532.719 "/>
<path fill="#1e1f21" d="M 257.889 506.272 C 277.048 498.808 291.173 499.615 300.013 500.363 L 299.664 504.476 C 290.881 503.732 277.863 502.854 259.394 510.117 L 257.889 506.272 Z"/>
<path fill="none" stroke="#1e1f21" stroke-width="1" stroke-linecap="butt" stroke-linejoin="round" d="M 257.889 506.272 L 259.394 510.117 "/>
<path fill="#1e1f21" d="M 300.456 500.537 C 316.360 506.107 343.790 488.199 351.808 481.219 L 354.515 484.336 C 346.148 491.588 317.420 509.925 299.221 504.302 L 300.456 500.537 Z"/>
<path fill="none" stroke="#1e1f21" stroke-width="1" stroke-linecap="butt" stroke-linejoin="round" d="M 300.456 500.537 L 299.221 504.302 "/>
<path fill="#1e1f21" d="M 352.268 481.749 C 361.712 473.547 380.653 457.934 382.980 453.976 L 386.358 456.048 C 383.282 460.899 363.428 475.663 354.055 483.806 L 352.268 481.749 Z"/>
<path fill="none" stroke="#1e1f21" stroke-width="1" stroke-linecap="butt" stroke-linejoin="round" d="M 352.268 481.749 L 354.055 483.806 "/>
<path fill="#1e1f21" d="M 652.794 169.441 C 652.792 169.490 651.773 151.376 654.003 140.979 L 658.038 141.852 C 655.887 151.716 654.608 169.504 654.606 169.559 L 652.794 169.441 Z"/>
<path fill="none" stroke="#1e1f21" stroke-width="1" stroke-linecap="butt" stroke-linejoin="round" d="M 652.794 169.441 L 654.606 169.559 "/>
<path fill="#1e1f21" d="M 654.003 140.979 C 657.179 126.304 660.578 115.952 668.266 102.321 L 671.861 104.351 C 664.323 117.688 661.173 127.348 658.038 141.852 L 654.003 140.979 Z"/>
<path fill="none" stroke="#1e1f21" stroke-width="1" stroke-linecap="butt" stroke-linejoin="round" d="M 654.003 140.979 L 658.038 141.852 "/>
<path fill="#1e1f21" d="M 668.266 102.321 C 679.681 82.117 690.622 69.277 707.061 55.115 L 709.754 58.244 C 693.518 72.219 683.102 84.427 671.861 104.351 L 668.266 102.321 Z"/>
<path fill="none" stroke="#1e1f21" stroke-width="1" stroke-linecap="butt" stroke-linejoin="round" d="M 668.266 102.321 L 671.861 104.351 "/>
<path fill="#1e1f21" d="M 707.061 55.115 C 720.692 43.380 736.269 28.547 754.717 32.850 L 753.715 36.854 C 737.501 32.487 723.484 46.420 709.754 58.244 L 707.061 55.115 Z"/>
<path fill="none" stroke="#1e1f21" stroke-width="1" stroke-linecap="butt" stroke-linejoin="round" d="M 707.061 55.115 L 709.754 58.244 "/>
<path fill="#1e1f21" d="M 754.717 32.850 C 768.796 36.645 775.736 52.618 780.335 64.067 L 776.505 65.606 C 771.922 54.196 765.959 39.643 753.715 36.854 L 754.717 32.850 Z"/>
<path fill="none" stroke="#1e1f21" stroke-width="1" stroke-linecap="butt" stroke-linejoin="round" d="M 754.717 32.850 L 753.715 36.854 "/>
<path fill="#1e1f21" d="M 780.335 64.067 C 786.611 79.831 786.081 100.161 783.891 116.643 L 779.799 116.098 C 781.965 99.851 782.535 80.481 776.505 65.606 L 780.335 64.067 Z"/>
<path fill="none" stroke="#1e1f21" stroke-width="1" stroke-linecap="butt" stroke-linejoin="round" d="M 780.335 64.067 L 776.505 65.606 "/>
<path fill="#1e1f21" d="M 783.891 116.643 C 781.081 137.417 761.699 177.540 759.791 178.199 L 761.052 175.691 C 759.155 176.356 777.190 136.041 779.799 116.098 L 783.891 116.643 Z"/>
<path fill="none" stroke="#1e1f21" stroke-width="1" stroke-linecap="butt" stroke-linejoin="round" d="M 783.891 116.643 L 779.799 116.098 "/>
<path fill="#1e1f21" d="M 751.249 189.593 C 750.611 189.482 769.492 186.760 777.433 201.600 L 773.745 203.453 C 767.710 190.483 750.869 191.779 750.226 191.666 L 751.249 189.593 Z"/>
<path fill="none" stroke="#1e1f21" stroke-width="1" stroke-linecap="butt" stroke-linejoin="round" d="M 751.249 189.593 L 750.226 191.666 "/>
<path fill="#1e1f21" d="M 777.433 201.600 C 785.611 218.897 771.814 223.785 769.838 233.580 L 767.902 233.159 C 770.404 222.392 781.578 218.019 773.745 203.453 L 777.433 201.600 Z"/>
<path fill="none" stroke="#1e1f21" stroke-width="1" stroke-linecap="butt" stroke-linejoin="round" d="M 777.433 201.600 L 773.745 203.453 "/>
<path fill="#1e1f21" d="M 498.505 551.049 C 497.167 541.309 495.828 531.569 494.490 521.828 L 498.580 521.266 C 499.918 531.007 501.256 540.747 502.594 550.487 L 498.505 551.049 Z"/>
<path fill="none" stroke="#1e1f21" stroke-width="1" stroke-linecap="butt" stroke-linejoin="round" d="M 498.505 551.049 L 502.594 550.487 "/>
<path fill="#1e1f21" d="M 496.645 523.608 C 495.451 523.644 494.300 523.321 493.596 523.052 L 495.077 519.199 C 495.654 519.422 495.914 519.542 496.425 519.486 L 496.645 523.608 Z"/>
<path fill="none" stroke="#1e1f21" stroke-width="1" stroke-linecap="butt" stroke-linejoin="round" d="M 496.645 523.608 L 496.425 519.486 "/>
<path fill="#1e1f21" d="M 492.296 521.439 C 492.277 521.275 491.483 510.317 489.617 505.553 L 493.472 504.077 C 495.552 509.621 496.394 520.973 496.376 520.811 L 492.296 521.439 Z"/>
<path fill="none" stroke="#1e1f21" stroke-width="1" stroke-linecap="butt" stroke-linejoin="round" d="M 492.296 521.439 L 496.376 520.811 "/>
<path fill="#1e1f21" d="M 489.617 505.553 C 488.635 502.987 487.370 499.913 487.393 499.965 L 491.165 498.289 C 491.188 498.342 492.470 501.459 493.472 504.077 L 489.617 505.553 Z"/>
<path fill="none" stroke="#1e1f21" stroke-width="1" stroke-linecap="butt" stroke-linejoin="round" d="M 489.617 505.553 L 493.472 504.077 "/>
<path fill="#1e1f21" d="M 452.878 569.212 C 452.907 569.204 470.158 563.586 477.172 560.692 L 478.742 564.510 C 471.368 567.533 453.434 571.200 453.458 571.193 L 452.878 569.212 Z"/>
<path fill="none" stroke="#1e1f21" stroke-width="1" stroke-linecap="butt" stroke-linejoin="round" d="M 452.878 569.212 L 453.458 571.193 "/>
<path fill="#1e1f21" d="M 477.172 560.692 C 483.793 558.041 491.892 549.560 500.393 548.710 L 500.706 552.826 C 493.949 553.138 486.274 561.341 478.742 564.510 L 477.172 560.692 Z"/>
<path fill="none" stroke="#1e1f21" stroke-width="1" stroke-linecap="butt" stroke-linejoin="round" d="M 477.172 560.692 L 478.742 564.510 "/>
<path fill="#1e1f21" d="M 500.393 548.710 C 509.972 548.191 520.422 556.476 528.342 558.467 L 527.304 562.462 C 518.415 560.083 508.445 552.027 500.706 552.826 L 500.393 548.710 Z"/>
<path fill="none" stroke="#1e1f21" stroke-width="1" stroke-linecap="butt" stroke-linejoin="round" d="M 500.393 548.710 L 500.706 552.826 "/>
<path fill="#1e1f21" d="M 528.342 558.467 C 537.155 560.766 558.482 564.634 558.514 564.639 L 558.214 566.514 C 558.239 566.517 536.473 564.837 527.304 562.462 L 528.342 558.467 Z"/>
<path fill="none" stroke="#1e1f21" stroke-width="1" stroke-linecap="butt" stroke-linejoin="round" d="M 528.342 558.467 L 527.304 562.462 "/>
<path fill="#1e1f21" d="M 299.605 504.470 C 264.303 500.383 253.698 487.192 248.040 478.963 L 251.442 476.624 C 257.017 484.737 265.735 496.511 300.073 500.369 L 299.605 504.470 Z"/>
<path fill="none" stroke="#1e1f21" stroke-width="1" stroke-linecap="butt" stroke-linejoin="round" d="M 299.605 504.470 L 300.073 500.369 "/>
<path fill="#1e1f21" d="M 248.040 478.963 C 242.347 470.646 238.135 456.893 238.147 449.401 L 240.376 449.414 C 240.301 456.367 246.043 468.808 251.442 476.624 L 248.040 478.963 Z"/>
<path fill="none" stroke="#1e1f21" stroke-width="1" stroke-linecap="butt" stroke-linejoin="round" d="M 248.040 478.963 L 251.442 476.624 "/>
<path fill="#1e1f21" d="M 458.423 497.659 C 458.250 498.049 460.181 492.296 463.493 489.407 L 466.121 492.591 C 463.725 494.413 462.174 499.330 461.999 499.722 L 458.423 497.659 Z"/>
<path fill="none" stroke="#1e1f21" stroke-width="1" stroke-linecap="butt" stroke-linejoin="round" d="M 458.423 497.659 L 461.999 499.722 "/>
<path fill="#1e1f21" d="M 463.493 489.407 C 465.919 487.504 469.474 486.744 470.467 486.704 L 470.541 490.831 C 470.152 490.816 467.592 491.278 466.121 492.591 L 463.493 489.407 Z"/>
<path fill="none" stroke="#1e1f21" stroke-width="1" stroke-linecap="butt" stroke-linejoin="round" d="M 463.493 489.407 L 466.121 492.591 "/>
<path fill="#1e1f21" d="M 470.467 486.704 C 471.378 486.704 474.868 487.237 477.263 489.052 L 474.667 492.262 C 473.351 491.076 470.935 490.808 470.541 490.831 L 470.467 486.704 Z"/>
<path fill="none" stroke="#1e1f21" stroke-width="1" stroke-linecap="butt" stroke-linejoin="round" d="M 470.467 486.704 L 470.541 490.831 "/>
<path fill="#1e1f21" d="M 477.263 489.052 C 479.997 491.390 481.270 495.141 481.581 496.346 L 477.583 497.372 C 477.319 496.336 476.544 493.652 474.667 492.262 L 477.263 489.052 Z"/>
<path fill="none" stroke="#1e1f21" stroke-width="1" stroke-linecap="butt" stroke-linejoin="round" d="M 477.263 489.052 L 474.667 492.262 "/>
<path fill="#1e1f21" d="M 481.581 496.346 C 481.934 497.907 481.806 501.285 481.441 504.336 L 477.343 503.843 C 477.691 500.962 477.809 498.068 477.583 497.372 L 481.581 496.346 Z"/>
<path fill="none" stroke="#1e1f21" stroke-width="1" stroke-linecap="butt" stroke-linejoin="round" d="M 481.581 496.346 L 477.583 497.372 "/>
<path fill="#1e1f21" d="M 481.441 504.336 C 481.124 506.902 480.173 510.332 480.204 510.203 L 476.164 509.353 C 476.196 509.224 477.086 506.045 477.343 503.843 L 481.441 504.336 Z"/>
<path fill="none" stroke="#1e1f21" stroke-width="1" stroke-linecap="butt" stroke-linejoin="round" d="M 481.441 504.336 L 477.343 503.843 "/>
<path fill="#1e1f21" d="M 477.030 511.490 C 472.681 508.405 470.066 509.905 464.795 506.863 L 466.940 503.336 C 470.789 505.841 473.666 504.396 479.338 508.067 L 477.030 511.490 Z"/>
<path fill="none" stroke="#1e1f21" stroke-width="1" stroke-linecap="butt" stroke-linejoin="round" d="M 477.030 511.490 L 479.338 508.067 "/>
<path fill="#1e1f21" d="M 464.795 506.863 C 461.295 504.624 459.064 500.443 458.668 500.062 L 461.754 497.320 C 462.641 498.382 464.391 501.894 466.940 503.336 L 464.795 506.863 Z"/>
<path fill="none" stroke="#1e1f21" stroke-width="1" stroke-linecap="butt" stroke-linejoin="round" d="M 464.795 506.863 L 466.940 503.336 "/>
<path fill="#1e1f21" d="M 458.668 500.062 C 457.751 499.028 449.921 490.832 449.914 488.035 L 453.407 490.235 C 452.996 488.078 460.747 496.188 461.754 497.320 L 458.668 500.062 Z"/>
<path fill="none" stroke="#1e1f21" stroke-width="1" stroke-linecap="butt" stroke-linejoin="round" d="M 458.668 500.062 L 461.754 497.320 "/>
<path fill="#1e1f21" d="M 451.645 491.199 C 446.965 490.012 444.194 478.420 438.688 470.327 L 442.110 468.019 C 447.996 476.814 450.682 488.216 451.676 487.071 L 451.645 491.199 Z"/>
<path fill="none" stroke="#1e1f21" stroke-width="1" stroke-linecap="butt" stroke-linejoin="round" d="M 451.645 491.199 L 451.676 487.071 "/>
<path fill="#1e1f21" d="M 438.688 470.327 C 432.446 460.622 437.358 454.484 425.213 452.653 L 425.968 448.595 C 440.413 451.708 436.556 460.235 442.110 468.019 L 438.688 470.327 Z"/>
<path fill="none" stroke="#1e1f21" stroke-width="1" stroke-linecap="butt" stroke-linejoin="round" d="M 438.688 470.327 L 442.110 468.019 "/>
<path fill="#1e1f21" d="M 562.901 440.666 C 563.114 440.625 563.814 440.575 563.133 440.930 L 566.466 443.365 C 565.256 444.443 563.690 444.713 563.902 444.671 L 562.901 440.666 Z"/>
<path fill="none" stroke="#1e1f21" stroke-width="1" stroke-linecap="butt" stroke-linejoin="round" d="M 562.901 440.666 L 563.902 444.671 "/>
<path fill="#1e1f21" d="M 563.133 440.930 C 569.333 434.229 552.227 419.468 552.238 407.412 L 556.364 407.543 C 555.684 417.211 573.090 432.518 566.466 443.366 L 563.133 440.930 Z"/>
<path fill="none" stroke="#1e1f21" stroke-width="1" stroke-linecap="butt" stroke-linejoin="round" d="M 563.133 440.930 L 566.466 443.366 "/>
<path fill="#1e1f21" d="M 552.238 407.412 C 552.725 395.550 565.629 371.536 565.511 371.798 L 569.385 373.225 C 569.264 373.493 556.589 397.003 556.364 407.543 L 552.238 407.412 Z"/>
<path fill="none" stroke="#1e1f21" stroke-width="1" stroke-linecap="butt" stroke-linejoin="round" d="M 552.238 407.412 L 556.364 407.543 "/>
<path fill="#1e1f21" d="M 219.347 181.554 C 229.809 210.570 265.745 247.667 265.353 247.439 L 264.876 249.192 C 264.468 248.959 226.462 212.987 215.467 182.964 L 219.347 181.554 Z"/>
<path fill="none" stroke="#1e1f21" stroke-width="1" stroke-linecap="butt" stroke-linejoin="round" d="M 219.347 181.554 L 215.467 182.964 "/>
<path fill="#1e1f21" d="M 213.136 117.858 C 196.765 129.180 210.578 157.436 219.347 181.554 L 215.467 182.964 C 206.781 159.055 192.649 128.865 210.669 114.548 L 213.136 117.858 Z"/>
<path fill="none" stroke="#1e1f21" stroke-width="1" stroke-linecap="butt" stroke-linejoin="round" d="M 213.136 117.858 L 210.669 114.548 "/>
<path fill="#1e1f21" d="M 250.255 127.584 C 232.575 116.469 222.580 110.408 213.136 117.858 L 210.669 114.548 C 222.295 106.290 234.711 112.937 252.452 124.089 L 250.255 127.584 Z"/>
<path fill="none" stroke="#1e1f21" stroke-width="1" stroke-linecap="butt" stroke-linejoin="round" d="M 250.255 127.584 L 252.452 124.089 "/>
<path fill="#1e1f21" d="M 291.013 154.145 C 278.968 145.891 269.641 139.771 250.255 127.584 L 252.452 124.089 C 271.860 136.290 281.272 142.466 293.346 150.740 L 291.013 154.145 Z"/>
<path fill="none" stroke="#1e1f21" stroke-width="1" stroke-linecap="butt" stroke-linejoin="round" d="M 291.013 154.145 L 293.346 150.740 "/>
<path fill="#1e1f21" d="M 334.383 183.814 C 334.371 183.806 303.985 163.033 291.013 154.145 L 293.346 150.740 C 306.398 159.684 335.301 182.542 335.298 182.540 L 334.383 183.814 Z"/>
<path fill="none" stroke="#1e1f21" stroke-width="1" stroke-linecap="butt" stroke-linejoin="round" d="M 334.383 183.814 L 335.298 182.540 "/>
<path fill="#1e1f21" d="M 300.013 500.363 C 307.466 501.034 328.954 508.721 332.513 510.325 L 330.813 514.086 C 327.518 512.591 306.316 504.999 299.664 504.476 L 300.013 500.363 Z"/>
<path fill="none" stroke="#1e1f21" stroke-width="1" stroke-linecap="butt" stroke-linejoin="round" d="M 300.013 500.363 L 299.664 504.476 "/>
<path fill="#1e1f21" d="M 332.513 510.325 C 333.515 510.788 338.869 513.967 339.646 514.427 L 337.541 517.978 C 336.762 517.516 331.458 514.367 330.813 514.086 L 332.513 510.325 Z"/>
<path fill="none" stroke="#1e1f21" stroke-width="1" stroke-linecap="butt" stroke-linejoin="round" d="M 332.513 510.325 L 330.813 514.086 "/>
<path fill="#1e1f21" d="M 451.676 487.071 C 452.089 488.531 453.557 476.383 461.236 471.228 L 463.428 474.726 C 457.232 478.263 456.025 489.775 451.645 491.199 L 451.676 487.071 Z"/>
<path fill="none" stroke="#1e1f21" stroke-width="1" stroke-linecap="butt" stroke-linejoin="round" d="M 451.676 487.071 L 451.645 491.199 "/>
<path fill="#1e1f21" d="M 461.236 471.228 C 466.429 468.127 472.642 468.816 474.749 468.795 L 474.771 472.923 C 472.272 472.927 467.269 472.168 463.428 474.726 L 461.236 471.228 Z"/>
<path fill="none" stroke="#1e1f21" stroke-width="1" stroke-linecap="butt" stroke-linejoin="round" d="M 461.236 471.228 L 463.428 474.726 "/>
<path fill="#1e1f21" d="M 474.749 468.795 C 478.296 468.891 484.923 472.175 489.967 471.396 L 490.506 475.488 C 484.089 476.218 476.958 472.796 474.771 472.923 L 474.749 468.795 Z"/>
<path fill="none" stroke="#1e1f21" stroke-width="1" stroke-linecap="butt" stroke-linejoin="round" d="M 474.749 468.795 L 474.771 472.923 "/>
<path fill="#1e1f21" d="M 489.967 471.396 C 495.545 470.975 497.470 464.846 506.467 463.733 L 506.855 467.842 C 499.818 468.241 498.164 474.167 490.506 475.488 L 489.967 471.396 Z"/>
<path fill="none" stroke="#1e1f21" stroke-width="1" stroke-linecap="butt" stroke-linejoin="round" d="M 489.967 471.396 L 490.506 475.488 "/>
<path fill="#1e1f21" d="M 506.467 463.733 C 516.190 462.929 524.291 468.027 527.135 469.036 L 525.719 472.914 C 522.265 471.624 515.215 466.940 506.855 467.842 L 506.467 463.733 Z"/>
<path fill="none" stroke="#1e1f21" stroke-width="1" stroke-linecap="butt" stroke-linejoin="round" d="M 506.467 463.733 L 506.855 467.842 "/>
<path fill="#1e1f21" d="M 527.135 469.036 C 529.532 469.942 538.119 475.267 538.088 474.708 L 539.269 478.664 C 536.312 478.978 527.488 473.529 525.719 472.914 L 527.135 469.036 Z"/>
<path fill="none" stroke="#1e1f21" stroke-width="1" stroke-linecap="butt" stroke-linejoin="round" d="M 527.135 469.036 L 525.719 472.914 "/>
<path fill="#1e1f21" d="M 538.088 474.708 C 539.124 475.300 541.065 463.380 546.870 455.591 L 550.159 458.085 C 544.912 464.876 543.029 476.640 539.269 478.664 L 538.088 474.708 Z"/>
<path fill="none" stroke="#1e1f21" stroke-width="1" stroke-linecap="butt" stroke-linejoin="round" d="M 538.088 474.708 L 539.269 478.664 "/>
<path fill="#1e1f21" d="M 546.870 455.591 C 552.391 448.310 559.581 440.235 564.909 440.087 L 564.690 444.209 C 561.928 443.631 555.581 450.930 550.159 458.085 L 546.870 455.591 Z"/>
<path fill="none" stroke="#1e1f21" stroke-width="1" stroke-linecap="butt" stroke-linejoin="round" d="M 546.870 455.591 L 550.159 458.085 "/>
<path fill="#1e1f21" d="M 564.909 440.087 C 573.018 441.528 575.948 458.956 586.643 468.612 L 583.849 471.651 C 572.269 460.827 569.363 443.446 564.690 444.209 L 564.909 440.087 Z"/>
<path fill="none" stroke="#1e1f21" stroke-width="1" stroke-linecap="butt" stroke-linejoin="round" d="M 564.909 440.087 L 564.690 444.209 "/>
<path fill="#1e1f21" d="M 586.643 468.612 C 596.029 477.275 602.178 478.974 611.742 484.056 L 609.803 487.700 C 600.536 482.762 593.740 480.710 583.849 471.651 L 586.643 468.612 Z"/>
<path fill="none" stroke="#1e1f21" stroke-width="1" stroke-linecap="butt" stroke-linejoin="round" d="M 586.643 468.612 L 583.849 471.651 "/>
<path fill="#1e1f21" d="M 611.742 484.056 C 627.700 492.548 645.418 502.548 657.485 504.463 L 656.822 508.537 C 643.889 506.383 625.714 496.167 609.803 487.700 L 611.742 484.056 Z"/>
<path fill="none" stroke="#1e1f21" stroke-width="1" stroke-linecap="butt" stroke-linejoin="round" d="M 611.742 484.056 L 609.803 487.700 "/>
<path fill="#1e1f21" d="M 657.485 504.463 C 686.499 509.201 700.385 517.226 772.039 488.180 L 773.589 492.006 C 701.359 521.237 685.345 513.165 656.822 508.537 L 657.485 504.463 Z"/>
<path fill="none" stroke="#1e1f21" stroke-width="1" stroke-linecap="butt" stroke-linejoin="round" d="M 657.485 504.463 L 656.822 508.537 "/>
<path fill="#1e1f21" d="M 772.039 488.180 C 807.583 473.804 806.723 468.462 819.422 455.915 L 822.316 458.859 C 810.147 470.767 809.641 477.383 773.589 492.006 L 772.039 488.180 Z"/>
<path fill="none" stroke="#1e1f21" stroke-width="1" stroke-linecap="butt" stroke-linejoin="round" d="M 772.039 488.180 L 773.589 492.006 "/>
<path fill="#1e1f21" d="M 820.385 455.381 C 820.509 455.354 869.898 446.928 889.615 439.194 L 890.758 442.115 C 870.634 449.978 821.243 459.417 821.353 459.394 L 820.385 455.381 Z"/>
<path fill="none" stroke="#1e1f21" stroke-width="1" stroke-linecap="butt" stroke-linejoin="round" d="M 820.385 455.381 L 821.353 459.394 "/>
<path fill="#1e1f21" d="M 889.615 439.194 C 907.079 432.372 944.460 408.449 944.562 408.389 L 946.351 411.645 C 946.442 411.591 908.600 435.116 890.758 442.115 L 889.615 439.194 Z"/>
<path fill="none" stroke="#1e1f21" stroke-width="1" stroke-linecap="butt" stroke-linejoin="round" d="M 889.615 439.194 L 890.758 442.115 "/>
<path fill="#1e1f21" d="M 802.605 113.284 C 802.523 113.040 799.410 140.854 796.274 152.873 L 792.280 151.827 C 795.332 140.215 798.426 112.536 799.124 111.066 L 802.605 113.284 Z"/>
<path fill="none" stroke="#1e1f21" stroke-width="1" stroke-linecap="butt" stroke-linejoin="round" d="M 802.605 113.284 L 799.124 111.066 "/>
<path fill="#1e1f21" d="M 796.274 152.873 C 794.197 160.775 787.256 178.214 787.203 178.336 L 783.473 176.566 C 783.421 176.687 790.308 159.391 792.280 151.827 L 796.274 152.873 Z"/>
<path fill="none" stroke="#1e1f21" stroke-width="1" stroke-linecap="butt" stroke-linejoin="round" d="M 796.274 152.873 L 792.280 151.827 "/>
<path fill="#1e1f21" d="M 787.361 177.040 C 786.942 176.155 800.611 193.278 797.369 213.349 L 793.301 212.651 C 796.637 194.396 783.736 178.755 783.315 177.863 L 787.361 177.040 Z"/>
<path fill="none" stroke="#1e1f21" stroke-width="1" stroke-linecap="butt" stroke-linejoin="round" d="M 787.361 177.040 L 783.315 177.863 "/>
<path fill="#1e1f21" d="M 797.369 213.349 C 795.477 223.482 789.607 224.087 786.686 228.941 L 784.931 227.855 C 788.360 222.443 791.967 221.310 793.301 212.651 L 797.369 213.349 Z"/>
<path fill="none" stroke="#1e1f21" stroke-width="1" stroke-linecap="butt" stroke-linejoin="round" d="M 797.369 213.349 L 793.301 212.651 "/>
<path fill="#1e1f21" d="M 512.668 504.062 C 512.997 504.214 510.360 503.253 508.164 501.735 L 510.536 498.357 C 512.242 499.579 514.386 500.326 514.716 500.478 L 512.668 504.062 Z"/>
<path fill="none" stroke="#1e1f21" stroke-width="1" stroke-linecap="butt" stroke-linejoin="round" d="M 512.668 504.062 L 514.716 500.478 "/>
<path fill="#1e1f21" d="M 508.164 501.735 C 506.003 500.204 504.990 499.806 503.326 497.098 L 506.855 494.957 C 508.201 497.211 508.015 496.599 510.536 498.357 L 508.164 501.735 Z"/>
<path fill="none" stroke="#1e1f21" stroke-width="1" stroke-linecap="butt" stroke-linejoin="round" d="M 508.164 501.735 L 510.536 498.357 "/>
<path fill="#1e1f21" d="M 503.326 497.098 C 501.846 494.485 501.332 488.938 503.259 486.088 L 506.484 488.664 C 505.411 489.571 505.847 493.469 506.855 494.957 L 503.326 497.098 Z"/>
<path fill="none" stroke="#1e1f21" stroke-width="1" stroke-linecap="butt" stroke-linejoin="round" d="M 503.326 497.098 L 506.855 494.957 "/>
<path fill="#1e1f21" d="M 503.259 486.088 C 506.625 482.255 513.910 481.316 516.773 481.582 L 516.356 485.689 C 514.141 485.438 508.278 486.038 506.484 488.664 L 503.259 486.088 Z"/>
<path fill="none" stroke="#1e1f21" stroke-width="1" stroke-linecap="butt" stroke-linejoin="round" d="M 503.259 486.088 L 506.484 488.664 "/>
<path fill="#1e1f21" d="M 516.773 481.582 C 519.496 481.932 520.196 482.845 521.326 482.996 L 520.477 487.036 C 518.237 486.479 518.005 485.782 516.356 485.689 L 516.773 481.582 Z"/>
<path fill="none" stroke="#1e1f21" stroke-width="1" stroke-linecap="butt" stroke-linejoin="round" d="M 516.773 481.582 L 516.356 485.689 "/>
<path fill="#1e1f21" d="M 521.326 482.996 C 522.993 483.358 526.032 483.480 526.175 483.491 L 525.719 487.594 C 525.861 487.604 522.565 487.464 520.477 487.036 L 521.326 482.996 Z"/>
<path fill="none" stroke="#1e1f21" stroke-width="1" stroke-linecap="butt" stroke-linejoin="round" d="M 521.326 482.996 L 520.477 487.036 "/>
<path fill="#1e1f21" d="M 527.466 486.939 C 523.733 490.625 526.236 492.946 522.189 498.339 L 518.990 495.729 C 522.163 492.274 519.725 489.634 524.428 484.145 L 527.466 486.939 Z"/>
<path fill="none" stroke="#1e1f21" stroke-width="1" stroke-linecap="butt" stroke-linejoin="round" d="M 527.466 486.939 L 524.428 484.145 "/>
<path fill="#1e1f21" d="M 522.189 498.339 C 518.945 502.212 515.210 503.493 515.116 503.764 L 512.268 500.776 C 513.590 499.697 516.497 498.888 518.990 495.729 L 522.189 498.339 Z"/>
<path fill="none" stroke="#1e1f21" stroke-width="1" stroke-linecap="butt" stroke-linejoin="round" d="M 522.189 498.339 L 518.990 495.729 "/>
<path fill="#1e1f21" d="M 515.116 503.764 C 513.485 505.250 506.088 517.394 500.320 522.251 L 497.682 519.075 C 502.819 514.874 510.050 502.961 512.268 500.776 L 515.116 503.764 Z"/>
<path fill="none" stroke="#1e1f21" stroke-width="1" stroke-linecap="butt" stroke-linejoin="round" d="M 515.116 503.764 L 512.268 500.776 "/>
<path fill="#1e1f21" d="M 500.320 522.251 C 499.378 522.991 497.924 523.521 496.645 523.608 L 496.425 519.486 C 497.140 519.468 497.345 519.398 497.682 519.075 L 500.320 522.251 Z"/>
<path fill="none" stroke="#1e1f21" stroke-width="1" stroke-linecap="butt" stroke-linejoin="round" d="M 500.320 522.251 L 497.682 519.075 "/>
<path fill="#1e1f21" d="M 819.422 455.915 C 827.380 448.129 841.609 425.366 841.706 425.224 L 845.016 427.690 C 845.109 427.555 830.719 450.557 822.316 458.859 L 819.422 455.915 Z"/>
<path fill="none" stroke="#1e1f21" stroke-width="1" stroke-linecap="butt" stroke-linejoin="round" d="M 819.422 455.915 L 822.316 458.859 "/>
<path fill="#1e1f21" d="M 479.338 508.067 C 487.629 513.675 489.907 517.289 495.076 519.199 L 493.596 523.052 C 487.471 520.622 484.913 516.784 477.030 511.490 L 479.338 508.067 Z"/>
<path fill="none" stroke="#1e1f21" stroke-width="1" stroke-linecap="butt" stroke-linejoin="round" d="M 479.338 508.067 L 477.030 511.490 "/>
<path fill="#1e1f21" d="M 524.428 484.145 C 529.643 478.679 533.443 479.656 534.708 478.159 L 537.388 481.299 C 534.038 483.741 531.469 482.381 527.466 486.939 L 524.428 484.145 Z"/>
<path fill="none" stroke="#1e1f21" stroke-width="1" stroke-linecap="butt" stroke-linejoin="round" d="M 524.428 484.145 L 527.466 486.939 "/>
<path fill="#1e1f21" d="M 534.708 478.159 C 535.283 477.700 537.047 475.421 537.100 475.357 L 540.257 478.016 C 540.309 477.952 538.406 480.399 537.388 481.299 L 534.708 478.159 Z"/>
<path fill="none" stroke="#1e1f21" stroke-width="1" stroke-linecap="butt" stroke-linejoin="round" d="M 534.708 478.159 L 537.388 481.299 "/>
<path fill="#1e1f21" d="M 644.688 91.300 C 644.606 91.416 657.234 72.170 671.349 56.780 L 674.391 59.572 C 660.501 74.693 648.058 93.680 647.970 93.803 L 644.688 91.300 Z"/>
<path fill="none" stroke="#1e1f21" stroke-width="1" stroke-linecap="butt" stroke-linejoin="round" d="M 644.688 91.300 L 647.970 93.803 "/>
<path fill="#1e1f21" d="M 671.349 56.780 C 686.116 40.695 695.445 32.625 705.294 25.657 L 707.678 29.027 C 697.990 35.875 689.039 43.609 674.391 59.572 L 671.349 56.780 Z"/>
<path fill="none" stroke="#1e1f21" stroke-width="1" stroke-linecap="butt" stroke-linejoin="round" d="M 671.349 56.780 L 674.391 59.572 "/>
<path fill="#1e1f21" d="M 705.294 25.657 C 710.571 21.926 716.503 18.061 727.148 13.626 L 728.734 17.437 C 718.349 21.754 712.891 25.340 707.678 29.027 L 705.294 25.657 Z"/>
<path fill="none" stroke="#1e1f21" stroke-width="1" stroke-linecap="butt" stroke-linejoin="round" d="M 705.294 25.657 L 707.678 29.027 "/>
<path fill="#1e1f21" d="M 727.148 13.626 C 735.851 10.028 751.248 7.621 759.792 10.251 L 758.537 14.184 C 751.214 11.749 736.856 14.032 728.734 17.437 L 727.148 13.626 Z"/>
<path fill="none" stroke="#1e1f21" stroke-width="1" stroke-linecap="butt" stroke-linejoin="round" d="M 727.148 13.626 L 728.734 17.437 "/>
<path fill="#1e1f21" d="M 759.792 10.251 C 769.370 13.353 779.199 21.272 787.879 35.601 L 784.346 37.735 C 776.015 23.900 767.347 16.951 758.537 14.184 L 759.792 10.251 Z"/>
<path fill="none" stroke="#1e1f21" stroke-width="1" stroke-linecap="butt" stroke-linejoin="round" d="M 759.792 10.251 L 758.537 14.184 "/>
<path fill="#1e1f21" d="M 787.879 35.601 C 793.120 44.296 799.569 59.971 801.409 68.361 L 797.375 69.238 C 795.666 61.315 789.398 46.082 784.346 37.735 L 787.879 35.601 Z"/>
<path fill="none" stroke="#1e1f21" stroke-width="1" stroke-linecap="butt" stroke-linejoin="round" d="M 787.879 35.601 L 784.346 37.735 "/>
<path fill="#1e1f21" d="M 801.409 68.361 C 806.607 92.446 802.330 111.804 802.515 110.936 L 799.214 113.415 C 798.273 111.046 802.480 92.534 797.375 69.238 L 801.409 68.361 Z"/>
<path fill="none" stroke="#1e1f21" stroke-width="1" stroke-linecap="butt" stroke-linejoin="round" d="M 801.409 68.361 L 797.375 69.238 "/>
<path fill="#1e1f21" d="M 304.718 647.306 C 298.212 648.960 296.047 649.919 269.604 654.388 L 268.916 650.318 C 295.279 645.863 297.017 645.009 303.700 643.306 L 304.718 647.306 Z"/>
<path fill="none" stroke="#1e1f21" stroke-width="1" stroke-linecap="butt" stroke-linejoin="round" d="M 304.718 647.306 L 303.700 643.306 "/>
<path fill="#1e1f21" d="M 269.604 654.388 C 260.307 655.921 244.612 653.798 234.549 650.888 L 235.699 646.923 C 245.407 649.747 260.406 651.794 268.916 650.318 L 269.604 654.388 Z"/>
<path fill="none" stroke="#1e1f21" stroke-width="1" stroke-linecap="butt" stroke-linejoin="round" d="M 269.604 654.388 L 268.916 650.318 "/>
<path fill="#1e1f21" d="M 234.549 650.888 C 224.522 647.979 208.935 642.358 202.626 634.741 L 205.838 632.148 C 211.060 638.819 225.819 644.060 235.699 646.923 L 234.549 650.888 Z"/>
<path fill="none" stroke="#1e1f21" stroke-width="1" stroke-linecap="butt" stroke-linejoin="round" d="M 234.549 650.888 L 235.699 646.923 "/>
<path fill="#1e1f21" d="M 202.626 634.741 C 193.942 623.738 190.258 593.616 195.084 573.936 L 199.091 574.929 C 194.384 593.715 197.897 622.554 205.838 632.148 L 202.626 634.741 Z"/>
<path fill="none" stroke="#1e1f21" stroke-width="1" stroke-linecap="butt" stroke-linejoin="round" d="M 202.626 634.741 L 205.838 632.148 "/>
<path fill="#1e1f21" d="M 195.084 573.936 C 202.577 544.390 224.304 535.179 223.585 530.953 L 227.711 531.080 C 226.631 538.589 205.870 546.879 199.091 574.929 L 195.084 573.936 Z"/>
<path fill="none" stroke="#1e1f21" stroke-width="1" stroke-linecap="butt" stroke-linejoin="round" d="M 195.084 573.936 L 199.091 574.929 "/>
<path fill="#1e1f21" d="M 223.585 530.953 C 223.900 525.749 193.082 450.207 197.308 420.436 L 201.392 421.038 C 197.083 449.191 227.764 524.297 227.711 531.080 L 223.585 530.953 Z"/>
<path fill="none" stroke="#1e1f21" stroke-width="1" stroke-linecap="butt" stroke-linejoin="round" d="M 223.585 530.953 L 227.711 531.080 "/>
<path fill="#1e1f21" d="M 197.308 420.436 C 198.540 412.123 198.885 396.274 206.904 378.843 L 210.651 380.575 C 202.888 397.280 202.660 412.387 201.392 421.038 L 197.308 420.436 Z"/>
<path fill="none" stroke="#1e1f21" stroke-width="1" stroke-linecap="butt" stroke-linejoin="round" d="M 197.308 420.436 L 201.392 421.038 "/>
<path fill="#1e1f21" d="M 206.904 378.843 C 222.945 344.384 251.406 330.713 255.541 314.012 L 259.530 315.076 C 254.241 333.714 225.972 347.191 210.651 380.575 L 206.904 378.843 Z"/>
<path fill="none" stroke="#1e1f21" stroke-width="1" stroke-linecap="butt" stroke-linejoin="round" d="M 206.904 378.843 L 210.651 380.575 "/>
<path fill="#1e1f21" d="M 255.541 314.012 C 258.549 303.537 250.952 291.268 251.179 266.076 L 255.307 266.120 C 255.002 290.467 262.602 302.756 259.530 315.076 L 255.541 314.012 Z"/>
<path fill="none" stroke="#1e1f21" stroke-width="1" stroke-linecap="butt" stroke-linejoin="round" d="M 255.541 314.012 L 259.530 315.076 "/>
<path fill="#1e1f21" d="M 251.179 266.076 C 251.783 254.819 230.620 241.783 215.416 213.159 L 219.065 211.229 C 233.727 239.065 254.974 252.200 255.307 266.120 L 251.179 266.076 Z"/>
<path fill="none" stroke="#1e1f21" stroke-width="1" stroke-linecap="butt" stroke-linejoin="round" d="M 251.179 266.076 L 255.307 266.120 "/>
<path fill="#1e1f21" d="M 215.416 213.159 C 201.687 187.188 188.344 149.100 188.401 135.602 L 192.529 135.641 C 192.341 148.067 205.489 185.580 219.065 211.229 L 215.416 213.159 Z"/>
<path fill="none" stroke="#1e1f21" stroke-width="1" stroke-linecap="butt" stroke-linejoin="round" d="M 215.416 213.159 L 219.065 211.229 "/>
<path fill="#1e1f21" d="M 188.401 135.602 C 188.587 118.627 193.624 106.254 203.184 101.547 L 204.946 105.280 C 196.747 108.953 192.657 119.313 192.529 135.641 L 188.401 135.602 Z"/>
<path fill="none" stroke="#1e1f21" stroke-width="1" stroke-linecap="butt" stroke-linejoin="round" d="M 188.401 135.602 L 192.529 135.641 "/>
<path fill="#1e1f21" d="M 203.184 101.547 C 217.555 94.977 241.807 101.215 265.257 111.819 L 263.555 115.580 C 240.424 105.104 217.584 99.105 204.946 105.280 L 203.184 101.547 Z"/>
<path fill="none" stroke="#1e1f21" stroke-width="1" stroke-linecap="butt" stroke-linejoin="round" d="M 203.184 101.547 L 204.946 105.280 "/>
<path fill="#1e1f21" d="M 265.257 111.819 C 292.444 124.122 302.640 128.689 307.330 131.190 L 305.386 134.831 C 300.870 132.418 290.746 127.885 263.555 115.580 L 265.257 111.819 Z"/>
<path fill="none" stroke="#1e1f21" stroke-width="1" stroke-linecap="butt" stroke-linejoin="round" d="M 265.257 111.819 L 263.555 115.580 "/>
<path fill="#1e1f21" d="M 307.330 131.190 C 315.098 135.341 371.901 173.006 371.903 173.008 L 371.293 173.990 C 371.283 173.983 312.921 138.849 305.386 134.831 L 307.330 131.190 Z"/>
<path fill="none" stroke="#1e1f21" stroke-width="1" stroke-linecap="butt" stroke-linejoin="round" d="M 307.330 131.190 L 305.386 134.831 "/>
<path fill="#1e1f21" d="M 306.727 130.980 C 313.428 132.208 345.353 141.981 364.245 142.000 L 364.233 146.128 C 344.574 146.035 312.297 136.178 305.989 135.041 L 306.727 130.980 Z"/>
<path fill="none" stroke="#1e1f21" stroke-width="1" stroke-linecap="butt" stroke-linejoin="round" d="M 306.727 130.980 L 305.989 135.041 "/>
<path fill="#1e1f21" d="M 364.245 142.000 C 378.109 142.143 383.245 135.713 407.826 134.384 L 408.042 138.506 C 384.293 139.706 379.387 146.068 364.233 146.128 L 364.245 142.000 Z"/>
<path fill="none" stroke="#1e1f21" stroke-width="1" stroke-linecap="butt" stroke-linejoin="round" d="M 364.245 142.000 L 364.233 146.128 "/>
<path fill="#1e1f21" d="M 407.826 134.384 C 430.616 133.238 433.677 138.553 448.680 137.102 L 449.053 141.213 C 432.833 142.593 429.952 137.313 408.042 138.506 L 407.826 134.384 Z"/>
<path fill="none" stroke="#1e1f21" stroke-width="1" stroke-linecap="butt" stroke-linejoin="round" d="M 407.826 134.384 L 408.042 138.506 "/>
<path fill="#1e1f21" d="M 448.680 137.102 C 490.234 133.389 507.775 117.553 554.539 106.751 L 555.465 110.774 C 509.356 121.366 491.528 137.309 449.053 141.213 L 448.680 137.102 Z"/>
<path fill="none" stroke="#1e1f21" stroke-width="1" stroke-linecap="butt" stroke-linejoin="round" d="M 448.680 137.102 L 449.053 141.213 "/>
<path fill="#1e1f21" d="M 554.539 106.751 C 593.436 97.795 640.578 81.569 648.090 91.474 L 644.568 93.629 C 641.143 85.658 594.596 101.757 555.465 110.774 L 554.539 106.751 Z"/>
<path fill="none" stroke="#1e1f21" stroke-width="1" stroke-linecap="butt" stroke-linejoin="round" d="M 554.539 106.751 L 555.465 110.774 "/>
<path fill="#1e1f21" d="M 648.090 91.474 C 652.608 101.064 605.634 157.856 605.660 157.821 L 604.824 157.288 C 604.858 157.240 649.118 98.859 644.568 93.629 L 648.090 91.474 Z"/>
<path fill="none" stroke="#1e1f21" stroke-width="1" stroke-linecap="butt" stroke-linejoin="round" d="M 648.090 91.474 L 644.568 93.629 "/>
<path fill="#6b3f69" fill-rule="evenodd" stroke="#1e1f21" stroke-width="4" stroke-linecap="round" stroke-linejoin="round" d="M 415.758 357.003 C 423.825 367.718 431.485 379.863 428.561 390.100 C 424.817 403.214 407.066 414.619 391.211 416.017 C 374.799 417.464 356.781 408.496 348.525 396.198 C 341.690 386.016 338.882 371.855 345.857 357.323 C 352.833 342.792 366.021 338.338 377.094 335.489 C 377.802 335.307 389.187 334.886 400.037 343.129 C 409.560 350.363 413.122 353.501 415.758 357.003 M 659.926 324.677 C 654.468 315.511 651.817 313.619 636.387 308.269 C 622.265 305.674 620.297 306.798 611.641 308.173 C 601.398 309.800 591.315 315.517 583.594 319.908 C 581.772 320.944 578.388 322.054 575.446 324.711 C 565.848 333.378 558.882 350.687 564.978 367.677 C 566.851 372.898 566.374 370.884 567.448 372.511 C 571.346 378.416 578.187 383.950 583.945 386.644 C 592.656 390.720 604.958 391.702 615.909 389.103 C 630.199 385.711 643.183 378.632 651.347 366.870 C 659.750 354.764 666.320 338.886 659.926 324.677 Z"/>
<path fill="none" stroke="#1e1f21" stroke-width="1" stroke-linecap="butt" stroke-linejoin="round" d="M 659.926 324.677 C 654.468 315.511 651.817 313.619 636.387 308.269 "/>
<path fill="none" stroke="#1e1f21" stroke-width="1" stroke-linecap="butt" stroke-linejoin="round" d="M 636.387 308.269 C 622.265 305.674 620.297 306.798 611.641 308.173 "/>
<path fill="none" stroke="#1e1f21" stroke-width="1" stroke-linecap="butt" stroke-linejoin="round" d="M 400.037 343.129 C 409.560 350.363 413.122 353.501 415.758 357.003 "/>
<path fill="#1e1f21" fill-rule="evenodd" stroke="none" d="M 611.641 308.173 C 606.090 311.155 602.021 316.051 600.442 325.945 C 598.897 335.631 602.021 340.922 605.764 345.837 C 610.123 351.560 618.961 356.353 626.602 357.703 C 635.863 359.339 649.075 358.662 655.187 352.444 C 661.111 346.417 665.142 333.435 659.926 324.677 C 654.468 315.511 651.817 313.619 636.387 308.269 C 622.265 305.674 620.297 306.798 611.641 308.173 M 373.824 383.990 C 366.109 377.100 357.658 359.014 368.364 344.348 C 377.017 332.495 394.510 336.738 400.037 343.129 C 409.560 350.363 413.122 353.501 415.758 357.003 C 423.913 367.715 425.451 379.873 419.524 386.568 C 405.327 402.607 382.771 391.982 373.824 383.990 Z"/>
<path fill="#dfe0e2" fill-rule="evenodd" stroke="none" d="M 632.564 324.160 C 632.600 320.722 635.404 317.898 638.840 318.014 C 642.150 318.126 644.557 320.973 644.522 324.286 C 644.488 327.597 642.021 330.393 638.710 330.436 C 635.272 330.479 632.528 327.598 632.564 324.160 M 397.776 357.114 C 397.803 354.770 399.788 352.719 402.522 352.719 C 405.257 352.719 407.242 354.770 407.269 357.114 C 407.296 359.500 405.306 361.678 402.522 361.678 C 399.739 361.678 397.749 359.500 397.776 357.114 Z"/>
<path fill="#dfe0e2" fill-opacity="0.188235" d="M 833.172 322.444 C 832.896 322.092 847.833 333.734 851.783 357.983 L 847.706 358.631 C 844.136 335.571 831.454 323.792 831.175 323.434 L 833.172 322.444 Z"/>
<path fill="#dfe0e2" fill-opacity="0.188235" d="M 851.783 357.983 C 855.310 380.758 845.826 395.718 846.025 395.183 L 843.011 394.680 C 843.212 394.137 851.224 380.174 847.706 358.631 L 851.783 357.983 Z"/>
<path fill="#dfe0e2" fill-opacity="0.188235" d="M 845.192 396.115 C 830.632 404.406 794.921 419.984 794.968 419.963 L 793.656 417.204 C 793.712 417.179 829.471 401.941 843.844 393.748 L 845.192 396.115 Z"/>
<path fill="#dfe0e2" fill-opacity="0.188235" d="M 796.115 419.587 C 791.445 427.745 773.394 439.087 773.543 438.971 L 771.718 436.948 C 771.871 436.828 788.694 424.667 792.508 417.580 L 796.115 419.587 Z"/>
<path fill="#dfe0e2" fill-opacity="0.188235" d="M 843.762 393.604 C 853.467 388.076 865.924 379.899 874.166 372.636 L 876.892 375.736 C 868.324 383.258 855.020 390.706 845.274 396.259 L 843.762 393.604 Z"/>
<path fill="#dfe0e2" fill-opacity="0.188235" d="M 874.166 372.636 C 880.417 367.160 893.840 352.313 893.860 352.288 L 895.052 353.309 C 895.068 353.289 883.508 369.895 876.892 375.736 L 874.166 372.636 Z"/>
<path fill="#dfe0e2" fill-opacity="0.188235" d="M 793.121 417.921 C 802.867 400.411 810.188 386.934 800.268 352.695 L 803.600 351.735 C 813.652 386.783 805.249 401.733 795.502 419.246 L 793.121 417.921 Z"/>
<path fill="#dfe0e2" fill-opacity="0.188235" d="M 800.268 352.695 C 790.030 316.687 757.127 298.052 756.874 297.840 L 758.156 296.800 C 757.912 296.599 792.726 314.506 803.600 351.735 L 800.268 352.695 Z"/>
<path fill="#dfe0e2" fill-opacity="0.188235" d="M 374.625 334.757 C 360.840 336.913 344.404 348.610 330.204 353.049 L 328.982 349.106 C 342.477 344.959 359.128 333.157 373.966 330.682 L 374.625 334.757 Z"/>
<path fill="#dfe0e2" fill-opacity="0.188235" d="M 330.204 353.049 C 322.680 355.381 312.340 357.971 304.416 358.854 L 303.962 354.751 C 311.568 353.916 321.582 351.401 328.982 349.106 L 330.204 353.049 Z"/>
<path fill="#dfe0e2" fill-opacity="0.188235" d="M 304.416 358.854 C 296.562 359.664 287.682 356.738 280.015 358.802 L 278.988 354.804 C 287.875 352.614 297.093 355.571 303.962 354.751 L 304.416 358.854 Z"/>
<path fill="#dfe0e2" fill-opacity="0.188235" d="M 280.015 358.802 C 266.349 362.310 254.970 366.444 245.726 378.799 L 242.431 376.312 C 252.401 363.213 265.124 358.368 278.988 354.804 L 280.015 358.802 Z"/>
<path fill="#dfe0e2" fill-opacity="0.188235" d="M 245.726 378.799 C 239.547 386.760 236.308 404.279 236.307 404.282 L 236.307 404.282 C 236.308 404.279 235.583 385.607 242.431 376.312 L 245.726 378.799 Z"/>
<path fill="none" stroke="#1e1f21" stroke-width="4" stroke-linecap="round" stroke-linejoin="round" d="M 1041.628 232.628 C 1041.630 232.643 1068.119 306.582 1063.869 379.739 C 1057.080 496.621 996.699 607.734 996.692 607.756 M 925.164 136.118 C 925.172 136.133 985.623 203.436 1000.384 283.656 C 1022.103 401.691 968.494 525.207 968.491 525.231 "/>
<path fill="none" stroke="#f45573" stroke-width="1" stroke-linecap="butt" stroke-linejoin="round" d="M 538.678 476.686 C 538.678 476.687 536.844 479.049 536.048 479.729 "/>
<path fill="none" stroke="#f45573" stroke-width="1" stroke-linecap="butt" stroke-linejoin="round" d="M 536.048 479.729 C 533.741 481.699 530.556 480.530 525.947 485.542 "/>
<path fill="none" stroke="#f45573" stroke-width="1" stroke-linecap="butt" stroke-linejoin="round" d="M 525.947 485.542 C 521.729 490.130 524.199 492.610 520.590 497.034 "/>
<path fill="none" stroke="#f45573" stroke-width="1" stroke-linecap="butt" stroke-linejoin="round" d="M 520.590 497.034 C 517.721 500.550 514.400 501.595 513.692 502.270 "/>
<path fill="none" stroke="#f45573" stroke-width="1" stroke-linecap="butt" stroke-linejoin="round" d="M 513.692 502.270 C 511.767 504.105 504.454 516.134 499.001 520.663 "/>
<path fill="none" stroke="#f45573" stroke-width="1" stroke-linecap="butt" stroke-linejoin="round" d="M 499.001 520.663 C 498.361 521.194 497.532 521.494 496.535 521.547 "/>
<path fill="none" stroke="#f45573" stroke-width="1" stroke-linecap="butt" stroke-linejoin="round" d="M 496.535 521.547 C 495.683 521.593 494.977 521.371 494.336 521.125 "/>
<path fill="none" stroke="#f45573" stroke-width="1" stroke-linecap="butt" stroke-linejoin="round" d="M 494.336 521.125 C 488.689 518.955 486.271 515.230 478.184 509.778 "/>
<path fill="none" stroke="#f45573" stroke-width="1" stroke-linecap="butt" stroke-linejoin="round" d="M 478.184 509.778 C 473.173 506.401 470.427 507.873 465.868 505.099 "/>
<path fill="none" stroke="#f45573" stroke-width="1" stroke-linecap="butt" stroke-linejoin="round" d="M 465.868 505.099 C 462.843 503.259 460.853 499.413 460.211 498.691 "/>
<path fill="none" stroke="#f45573" stroke-width="1" stroke-linecap="butt" stroke-linejoin="round" d="M 460.211 498.691 C 459.249 497.608 451.459 489.455 451.660 489.135 "/>
<path fill="#f45573" fill-rule="evenodd" stroke="#1e1f21" stroke-width="4" stroke-linecap="round" stroke-linejoin="round" d="M 451.660 489.135 C 454.057 489.153 455.394 477.323 462.332 472.977 C 466.849 470.147 472.457 470.871 474.760 470.859 C 477.627 470.843 484.506 474.197 490.236 473.442 C 496.854 472.571 498.644 466.544 506.661 465.788 C 515.702 464.935 523.278 469.825 526.427 470.975 C 528.510 471.736 537.215 477.123 538.678 476.686 C 538.678 476.687 536.844 479.049 536.048 479.729 C 533.741 481.699 530.556 480.530 525.947 485.542 C 521.729 490.130 524.199 492.610 520.590 497.034 C 517.721 500.550 514.400 501.595 513.692 502.270 C 511.767 504.105 504.454 516.134 499.001 520.663 C 498.361 521.194 497.532 521.494 496.535 521.547 C 495.683 521.593 494.977 521.371 494.336 521.125 C 488.689 518.955 486.271 515.230 478.184 509.778 C 473.173 506.401 470.427 507.873 465.868 505.099 C 462.843 503.259 460.853 499.413 460.211 498.691 C 459.249 497.608 451.459 489.455 451.660 489.135 Z"/>
<path fill="#1e1f21" fill-rule="evenodd" fill-opacity="0.611765" stroke="#1e1f21" stroke-width="4" stroke-linecap="round" stroke-linejoin="round" d="M 516.564 483.635 C 518.750 483.857 519.217 484.662 520.901 485.016 C 522.779 485.411 525.947 485.542 525.947 485.542 C 521.729 490.130 524.199 492.610 520.590 497.034 C 517.721 500.550 514.400 501.595 513.692 502.270 C 513.692 502.270 511.301 501.416 509.350 500.046 C 507.009 498.402 506.595 498.508 505.091 496.028 C 503.846 493.977 503.371 489.255 504.871 487.376 C 507.452 484.146 514.026 483.377 516.564 483.635 M 460.211 498.691 C 460.212 498.690 461.953 493.354 464.807 490.999 C 466.756 489.391 469.813 488.780 470.504 488.768 C 471.157 488.756 474.109 489.156 475.965 490.657 C 478.271 492.521 479.295 495.739 479.582 496.859 C 479.871 497.988 479.749 501.124 479.392 504.089 C 479.105 506.474 478.184 509.778 478.184 509.778 C 473.173 506.401 470.427 507.873 465.868 505.099 C 462.843 503.259 460.853 499.413 460.211 498.691 Z"/>
<path fill="none" stroke="#1e1f21" stroke-width="4" stroke-linecap="round" stroke-linejoin="round" d="M 494.336 521.125 C 494.336 521.124 493.518 509.969 491.545 504.815 C 490.553 502.223 489.279 499.128 489.279 499.127 M 499.001 520.663 C 499.001 520.661 497.288 510.982 497.485 504.166 C 497.550 501.941 498.510 498.168 498.510 498.167 M 494.336 521.125 C 494.977 521.371 495.683 521.593 496.535 521.547 C 497.532 521.494 498.361 521.194 499.001 520.663 "/>
<path fill="#1e1f21" d="M 536.981 476.994 C 532.629 469.763 529.474 458.832 527.557 450.821 L 530.688 450.071 C 532.589 458.014 535.458 468.608 539.595 475.413 L 536.981 476.994 Z"/>
<path fill="#1e1f21" d="M 527.557 450.821 C 524.159 436.604 522.051 417.045 521.912 402.458 L 525.214 402.427 C 525.347 416.833 527.338 436.089 530.688 450.071 L 527.557 450.821 Z"/>
<path fill="none" stroke="#1e1f21" stroke-width="1" stroke-linecap="butt" stroke-linejoin="round" d="M 527.557 450.821 L 530.688 450.071 "/>
<path fill="#1e1f21" d="M 521.912 402.458 C 521.823 389.407 526.255 380.709 532.164 368.979 L 534.893 370.354 C 528.984 382.082 525.066 390.032 525.214 402.427 L 521.912 402.458 Z"/>
<path fill="none" stroke="#1e1f21" stroke-width="1" stroke-linecap="butt" stroke-linejoin="round" d="M 521.912 402.458 L 525.214 402.427 "/>
<path fill="#1e1f21" d="M 532.164 368.979 C 539.477 354.599 574.071 323.171 573.931 323.309 L 576.961 326.112 C 576.812 326.259 541.711 356.682 534.893 370.354 L 532.164 368.979 Z"/>
<path fill="none" stroke="#1e1f21" stroke-width="1" stroke-linecap="butt" stroke-linejoin="round" d="M 532.164 368.979 L 534.893 370.354 "/>
<path fill="#1e1f21" d="M 398.509 341.741 C 401.124 340.194 420.404 344.370 427.865 350.541 L 425.842 352.939 C 419.328 347.317 400.564 344.284 401.565 344.516 L 398.509 341.741 Z"/>
<path fill="none" stroke="#1e1f21" stroke-width="1" stroke-linecap="butt" stroke-linejoin="round" d="M 398.509 341.741 L 401.565 344.516 "/>
<path fill="#1e1f21" d="M 427.865 350.541 C 438.857 360.075 445.213 395.385 448.727 406.483 L 445.578 407.478 C 441.981 396.065 435.925 361.191 425.842 352.939 L 427.865 350.541 Z"/>
<path fill="none" stroke="#1e1f21" stroke-width="1" stroke-linecap="butt" stroke-linejoin="round" d="M 427.865 350.541 L 425.842 352.939 "/>
<path fill="#1e1f21" d="M 448.727 406.483 C 452.544 418.634 453.095 434.943 454.387 447.336 L 450.938 447.695 C 449.634 435.155 449.278 419.124 445.578 407.478 L 448.727 406.483 Z"/>
<path fill="none" stroke="#1e1f21" stroke-width="1" stroke-linecap="butt" stroke-linejoin="round" d="M 448.727 406.483 L 445.578 407.478 "/>
<path fill="#1e1f21" d="M 454.387 447.336 C 455.635 460.042 448.797 476.367 452.338 487.227 L 449.265 488.188 C 445.598 476.009 452.229 459.393 450.938 447.695 L 454.387 447.336 Z"/>
<path fill="none" stroke="#1e1f21" stroke-width="1" stroke-linecap="butt" stroke-linejoin="round" d="M 454.387 447.336 L 450.938 447.695 "/>
<path fill="#1e1f21" d="M 524.254 400.942 C 540.307 408.437 566.416 440.866 566.242 440.672 L 563.356 443.624 C 563.174 443.421 538.016 410.816 522.872 403.942 L 524.254 400.942 Z"/>
<path fill="#1e1f21" d="M 433.615 418.153 C 433.527 418.247 443.762 407.262 446.255 405.595 L 448.049 408.367 C 446.149 409.544 436.623 420.977 436.534 421.072 L 433.615 418.153 Z"/>
<path fill="none" stroke="#1e1f21" stroke-width="1" stroke-linecap="butt" stroke-linejoin="round" d="M 433.615 418.153 L 436.534 421.072 "/>
<path fill="#f45573" fill-rule="evenodd" fill-opacity="0.807843" stroke="none" d="M 334.841 183.177 C 334.836 183.174 305.191 161.359 292.179 152.442 C 280.120 144.178 270.751 138.030 251.353 125.836 C 233.643 114.703 222.438 108.349 211.902 116.203 C 194.707 129.022 208.680 158.246 217.407 182.259 C 228.136 211.779 265.107 248.313 265.114 248.315 C 265.114 248.315 284.884 218.756 296.012 208.532 C 306.257 199.120 334.837 183.179 334.841 183.177 M 720.798 169.291 C 700.766 167.308 653.706 169.500 653.700 169.500 C 653.700 169.497 653.830 151.546 656.021 141.416 C 659.176 126.826 662.451 116.820 670.064 103.336 C 681.392 83.272 692.070 70.748 708.408 56.680 C 722.088 44.900 736.885 30.517 754.216 34.852 C 767.377 38.144 773.829 53.407 778.420 64.837 C 784.573 80.156 784.023 100.006 781.845 116.371 C 779.136 136.729 760.427 176.948 760.421 176.945 C 760.421 176.945 732.846 170.484 720.798 169.291 Z"/>
<path fill="#1e1f21" d="M 334.383 183.814 C 334.371 183.806 303.985 163.033 291.013 154.145 L 293.346 150.740 C 306.398 159.684 335.301 182.542 335.298 182.540 L 334.383 183.814 Z"/>
<path fill="#1e1f21" d="M 291.013 154.145 C 278.968 145.891 269.641 139.771 250.255 127.584 L 252.452 124.089 C 271.860 136.290 281.272 142.466 293.346 150.740 L 291.013 154.145 Z"/>
<path fill="none" stroke="#1e1f21" stroke-width="1" stroke-linecap="butt" stroke-linejoin="round" d="M 291.013 154.145 L 293.346 150.740 "/>
<path fill="#1e1f21" d="M 250.255 127.584 C 232.575 116.469 222.580 110.408 213.136 117.858 L 210.669 114.548 C 222.295 106.290 234.711 112.937 252.452 124.089 L 250.255 127.584 Z"/>
<path fill="none" stroke="#1e1f21" stroke-width="1" stroke-linecap="butt" stroke-linejoin="round" d="M 250.255 127.584 L 252.452 124.089 "/>
<path fill="#1e1f21" d="M 213.136 117.858 C 196.765 129.180 210.578 157.436 219.347 181.554 L 215.467 182.964 C 206.781 159.055 192.649 128.865 210.669 114.548 L 213.136 117.858 Z"/>
<path fill="none" stroke="#1e1f21" stroke-width="1" stroke-linecap="butt" stroke-linejoin="round" d="M 213.136 117.858 L 210.669 114.548 "/>
<path fill="#1e1f21" d="M 219.347 181.554 C 229.809 210.570 265.745 247.667 265.353 247.439 L 264.876 249.192 C 264.468 248.959 226.462 212.987 215.467 182.964 L 219.347 181.554 Z"/>
<path fill="none" stroke="#1e1f21" stroke-width="1" stroke-linecap="butt" stroke-linejoin="round" d="M 219.347 181.554 L 215.467 182.964 "/>
<path fill="#1e1f21" d="M 652.794 169.441 C 652.792 169.490 651.773 151.376 654.003 140.979 L 658.038 141.852 C 655.887 151.716 654.608 169.504 654.606 169.559 L 652.794 169.441 Z"/>
<path fill="none" stroke="#1e1f21" stroke-width="1" stroke-linecap="butt" stroke-linejoin="round" d="M 652.794 169.441 L 654.606 169.559 "/>
<path fill="#1e1f21" d="M 654.003 140.979 C 657.179 126.304 660.578 115.952 668.266 102.321 L 671.861 104.351 C 664.323 117.688 661.173 127.348 658.038 141.852 L 654.003 140.979 Z"/>
<path fill="none" stroke="#1e1f21" stroke-width="1" stroke-linecap="butt" stroke-linejoin="round" d="M 654.003 140.979 L 658.038 141.852 "/>
<path fill="#1e1f21" d="M 668.266 102.321 C 679.681 82.117 690.622 69.277 707.061 55.115 L 709.754 58.244 C 693.518 72.219 683.102 84.427 671.861 104.351 L 668.266 102.321 Z"/>
<path fill="none" stroke="#1e1f21" stroke-width="1" stroke-linecap="butt" stroke-linejoin="round" d="M 668.266 102.321 L 671.861 104.351 "/>
<path fill="#1e1f21" d="M 707.061 55.115 C 720.692 43.380 736.269 28.547 754.717 32.850 L 753.715 36.854 C 737.501 32.487 723.484 46.420 709.754 58.244 L 707.061 55.115 Z"/>
<path fill="none" stroke="#1e1f21" stroke-width="1" stroke-linecap="butt" stroke-linejoin="round" d="M 707.061 55.115 L 709.754 58.244 "/>
<path fill="#1e1f21" d="M 754.717 32.850 C 768.796 36.645 775.736 52.618 780.335 64.067 L 776.505 65.606 C 771.922 54.196 765.959 39.643 753.715 36.854 L 754.717 32.850 Z"/>
<path fill="none" stroke="#1e1f21" stroke-width="1" stroke-linecap="butt" stroke-linejoin="round" d="M 754.717 32.850 L 753.715 36.854 "/>
<path fill="#1e1f21" d="M 780.335 64.067 C 786.611 79.831 786.081 100.161 783.891 116.643 L 779.799 116.098 C 781.965 99.851 782.535 80.481 776.505 65.606 L 780.335 64.067 Z"/>
<path fill="none" stroke="#1e1f21" stroke-width="1" stroke-linecap="butt" stroke-linejoin="round" d="M 780.335 64.067 L 776.505 65.606 "/>
<path fill="#1e1f21" d="M 783.891 116.643 C 781.081 137.417 761.699 177.540 759.791 178.199 L 761.052 175.691 C 759.155 176.356 777.190 136.041 779.799 116.098 L 783.891 116.643 Z"/>
<path fill="none" stroke="#1e1f21" stroke-width="1" stroke-linecap="butt" stroke-linejoin="round" d="M 783.891 116.643 L 779.799 116.098 "/>
</g>
<g id="Усы">
<path fill="#b4b5b7" fill-opacity="0.945098" d="M 427.423 505.884 C 409.394 517.048 388.726 528.546 370.405 534.208 L 369.383 530.894 C 387.283 525.393 406.959 513.021 424.946 501.883 L 427.423 505.884 Z"/>
<path fill="#b4b5b7" fill-opacity="0.945098" d="M 370.405 534.208 C 352.068 539.806 325.915 536.760 308.409 542.181 L 307.368 538.787 C 325.721 533.215 351.877 536.343 369.383 530.894 L 370.405 534.208 Z"/>
<path fill="#b4b5b7" fill-opacity="0.945098" d="M 308.409 542.181 C 263.859 555.832 196.109 585.265 171.145 615.169 L 171.145 615.169 C 196.109 585.265 262.539 552.537 307.368 538.787 L 308.409 542.181 Z"/>
<path fill="#b4b5b7" fill-opacity="0.945098" d="M 427.757 537.825 C 410.665 546.903 404.037 548.284 394.132 552.768 L 392.533 549.232 C 402.663 544.655 408.739 542.699 425.588 533.742 L 427.757 537.825 Z"/>
<path fill="#b4b5b7" fill-opacity="0.945098" d="M 394.132 552.768 C 378.348 559.900 356.012 566.335 342.070 575.826 L 340.123 572.956 C 354.600 563.168 377.028 556.251 392.533 549.232 L 394.132 552.768 Z"/>
<path fill="#b4b5b7" fill-opacity="0.945098" d="M 342.070 575.826 C 322.582 589.031 291.772 617.226 284.985 630.219 L 284.985 630.219 C 291.772 617.226 320.309 586.413 340.123 572.956 L 342.070 575.826 Z"/>
<path fill="#b4b5b7" fill-opacity="0.945098" d="M 323.222 636.793 C 328.431 625.528 340.494 609.826 350.673 600.852 L 353.402 603.950 C 343.383 612.774 328.431 625.528 323.222 636.793 L 323.222 636.793 Z"/>
<path fill="#b4b5b7" fill-opacity="0.945098" d="M 350.673 600.852 C 366.305 587.106 391.253 574.492 409.171 564.552 L 410.973 567.801 C 392.996 577.772 368.568 590.559 353.402 603.950 L 350.673 600.852 Z"/>
<path fill="#b4b5b7" fill-opacity="0.945098" d="M 409.171 564.552 C 417.527 559.920 429.043 554.711 437.301 550.315 L 439.240 553.959 C 430.812 558.441 419.145 563.265 410.973 567.801 L 409.171 564.552 Z"/>
<path fill="#b4b5b7" fill-opacity="0.945098" d="M 437.301 550.315 C 446.547 545.428 457.830 534.215 469.192 532.108 L 469.964 536.583 C 460.121 538.136 449.067 548.697 439.240 553.959 L 437.301 550.315 Z"/>
<path fill="#b4b5b7" fill-opacity="0.945098" d="M 221.886 629.296 C 238.170 606.711 287.723 573.681 320.956 558.357 L 322.304 561.281 C 289.300 576.488 238.170 606.711 221.886 629.296 L 221.886 629.296 Z"/>
<path fill="#b4b5b7" fill-opacity="0.945098" d="M 320.956 558.357 C 338.576 550.271 364.710 547.855 382.107 540.828 L 383.432 544.122 C 365.452 551.326 339.313 553.405 322.304 561.281 L 320.956 558.357 Z"/>
<path fill="#b4b5b7" fill-opacity="0.945098" d="M 382.107 540.828 C 402.048 532.838 411.014 521.854 445.872 506.041 L 447.814 510.327 C 413.425 525.895 403.944 535.839 383.432 544.122 L 382.107 540.828 Z"/>
<path fill="#b4b5b7" fill-opacity="0.945098" d="M 123.677 609.518 C 157.087 572.654 238.829 528.972 296.675 518.304 L 297.288 521.633 C 240.022 532.140 157.087 572.654 123.677 609.518 L 123.677 609.518 Z"/>
<path fill="#b4b5b7" fill-opacity="0.945098" d="M 296.675 518.304 C 314.060 515.239 337.864 527.064 352.956 521.323 L 354.173 524.658 C 337.327 530.573 313.340 518.546 297.288 521.633 L 296.675 518.304 Z"/>
<path fill="#b4b5b7" fill-opacity="0.945098" d="M 352.956 521.323 C 398.859 504.620 400.367 489.817 429.968 479.893 L 431.496 484.519 C 403.347 493.670 400.788 507.601 354.173 524.658 L 352.956 521.323 Z"/>
<path fill="#b4b5b7" fill-opacity="0.945098" d="M 582.401 502.308 C 610.815 507.714 724.242 547.839 784.893 567.169 L 783.640 571.102 C 722.919 551.749 609.243 512.671 581.432 507.418 L 582.401 502.308 Z"/>
<path fill="#b4b5b7" fill-opacity="0.945098" d="M 784.893 567.169 C 814.178 576.508 855.317 585.122 882.820 599.572 L 881.859 601.398 C 854.687 587.088 813.215 580.522 783.640 571.102 L 784.893 567.169 Z"/>
<path fill="#b4b5b7" fill-opacity="0.945098" d="M 882.820 599.572 C 898.740 607.946 919.450 620.857 930.335 636.322 L 930.335 636.322 C 919.450 620.857 897.746 609.755 881.859 601.398 L 882.820 599.572 Z"/>
<path fill="#b4b5b7" fill-opacity="0.945098" d="M 552.497 513.432 C 586.443 527.218 630.625 547.959 664.732 560.980 L 663.259 564.836 C 629.022 551.763 584.249 532.296 550.416 518.557 L 552.497 513.432 Z"/>
<path fill="#b4b5b7" fill-opacity="0.945098" d="M 664.732 560.980 C 672.728 564.055 695.349 578.002 708.100 585.573 L 705.993 589.122 C 693.204 581.529 670.720 567.662 663.259 564.836 L 664.732 560.980 Z"/>
<path fill="#b4b5b7" fill-opacity="0.945098" d="M 708.100 585.573 C 719.343 592.251 734.810 601.172 744.945 609.780 L 743.768 611.164 C 733.841 602.708 717.396 595.891 705.993 589.122 L 708.100 585.573 Z"/>
<path fill="#b4b5b7" fill-opacity="0.945098" d="M 744.945 609.780 C 750.128 614.190 754.587 618.567 759.623 627.395 L 759.623 627.395 C 754.587 618.567 749.002 615.614 743.768 611.164 L 744.945 609.780 Z"/>
<path fill="#b4b5b7" fill-opacity="0.945098" d="M 674.999 616.258 C 674.628 612.408 668.220 606.609 664.975 602.655 L 666.379 601.502 C 669.593 605.419 674.628 612.408 674.999 616.258 L 674.999 616.258 Z"/>
<path fill="#b4b5b7" fill-opacity="0.945098" d="M 664.975 602.655 C 660.367 597.036 652.561 591.125 646.874 586.704 L 649.409 583.446 C 655.288 588.026 661.690 595.792 666.379 601.502 L 664.975 602.655 Z"/>
<path fill="#b4b5b7" fill-opacity="0.945098" d="M 646.874 586.704 C 623.719 568.656 561.336 538.144 561.583 538.253 L 563.478 533.232 C 563.737 533.345 625.780 565.080 649.409 583.446 L 646.874 586.704 Z"/>
<path fill="#b4b5b7" fill-opacity="0.945098" d="M 859.183 637.136 C 852.637 625.919 835.454 616.462 823.965 609.402 L 825.132 607.503 C 836.631 614.569 852.637 625.919 859.183 637.136 L 859.183 637.136 Z"/>
<path fill="#b4b5b7" fill-opacity="0.945098" d="M 823.965 609.402 C 803.988 597.112 773.201 588.750 751.106 580.155 L 752.603 576.308 C 774.529 584.841 804.864 595.062 825.132 607.503 L 823.965 609.402 Z"/>
<path fill="#b4b5b7" fill-opacity="0.945098" d="M 751.106 580.155 C 706.823 562.926 628.228 532.286 602.338 526.964 L 603.272 522.437 C 629.742 527.918 708.329 559.082 752.603 576.308 L 751.106 580.155 Z"/>
<path fill="#b4b5b7" fill-opacity="0.945098" d="M 984.685 626.799 C 975.857 606.005 939.585 588.661 917.002 577.557 L 918.277 574.964 C 940.900 586.088 975.857 606.005 984.685 626.799 L 984.685 626.799 Z"/>
<path fill="#b4b5b7" fill-opacity="0.945098" d="M 917.002 577.557 C 892.340 565.404 854.822 561.031 827.794 554.089 L 828.822 550.091 C 855.573 556.971 893.110 562.618 918.277 574.964 L 917.002 577.557 Z"/>
<path fill="#b4b5b7" fill-opacity="0.945098" d="M 827.794 554.089 C 751.010 534.355 604.868 492.669 571.507 492.761 L 571.503 487.808 C 605.996 487.845 752.113 530.377 828.822 550.091 L 827.794 554.089 Z"/>
</g>
<g id="Тени">
<path fill="#000000" fill-rule="evenodd" fill-opacity="0.164706" stroke="none" d="M 341.997 517.308 C 342.003 517.315 365.444 548.860 403.707 588.510 C 419.860 605.249 467.710 621.213 497.605 626.923 C 554.689 637.826 634.429 632.068 691.187 619.576 C 755.374 605.450 846.518 580.777 892.985 534.297 C 912.759 514.518 934.321 450.746 934.325 450.738 C 934.322 450.743 915.819 494.678 901.947 509.125 C 884.903 526.877 853.848 540.892 831.414 551.010 C 797.352 566.372 749.784 585.709 712.490 588.036 C 698.722 588.896 679.928 580.881 666.933 581.795 C 640.312 583.668 605.224 607.019 577.158 610.322 C 547.741 613.784 509.525 605.759 478.703 602.905 C 460.861 601.252 437.790 585.225 422.068 574.556 C 412.212 567.867 401.690 555.583 392.133 548.474 C 377.924 537.903 342.002 517.311 341.997 517.308 Z"/>
<path fill="#000000" fill-rule="evenodd" fill-opacity="0.164706" stroke="none" d="M 409.858 503.674 C 409.855 503.695 396.003 509.676 389.724 511.096 C 383.886 512.416 375.802 512.224 369.863 512.958 C 361.466 513.998 342.000 517.308 341.997 517.308 C 342.000 517.307 361.539 506.514 370.755 504.388 C 382.084 501.774 409.863 503.636 409.858 503.674 Z"/>
<path fill="#dfe0e2" fill-rule="evenodd" fill-opacity="0.086275" stroke="none" d="M 564.015 336.421 C 564.010 336.426 525.359 362.915 516.667 380.128 C 511.287 390.781 508.882 395.932 510.019 424.089 C 510.511 436.270 510.003 459.326 517.380 464.163 C 523.180 467.967 539.674 473.689 539.676 473.690 C 539.678 473.687 551.534 446.608 564.868 442.055 C 569.670 440.415 562.910 426.400 560.829 420.005 C 559.199 414.995 553.597 409.390 553.323 404.129 C 552.905 396.087 563.707 387.170 563.123 379.138 C 562.184 366.210 564.015 336.426 564.015 336.421 Z"/>
<path fill="#000000" fill-rule="evenodd" fill-opacity="0.047059" stroke="none" d="M 645.596 92.228 C 644.563 90.443 618.373 91.615 609.049 96.983 C 599.769 102.327 557.018 142.804 557.015 142.806 C 557.017 142.807 568.912 152.402 575.030 154.333 C 584.483 157.316 602.063 162.815 608.068 154.929 C 620.848 138.143 647.914 96.232 645.596 92.228 Z"/>
<path fill="#000000" fill-rule="evenodd" fill-opacity="0.125490" stroke="none" d="M 722.888 46.618 C 722.894 46.630 755.110 51.989 756.379 96.411 C 757.074 120.728 759.061 176.458 759.062 176.458 C 759.064 176.452 778.244 138.648 780.927 120.954 C 783.633 103.111 784.075 77.318 776.442 60.965 C 771.813 51.048 761.582 38.114 751.213 34.614 C 741.026 31.175 722.872 46.592 722.888 46.618 Z"/>
<path fill="#000000" fill-rule="evenodd" fill-opacity="0.125490" stroke="none" d="M 334.198 184.145 C 334.190 184.140 284.684 148.268 262.417 134.492 C 251.691 127.857 238.251 115.388 225.717 113.983 C 220.603 113.411 205.022 114.480 208.986 117.761 C 255.820 156.528 290.022 181.498 320.165 190.621 C 321.589 191.052 334.196 184.146 334.198 184.145 Z"/>
<path fill="#000000" fill-rule="evenodd" fill-opacity="0.125490" stroke="none" d="M 466.128 468.177 C 463.212 470.506 448.527 486.558 448.525 486.559 C 441.770 478.283 439.036 471.785 437.789 466.892 C 434.747 454.955 428.259 448.139 423.801 450.755 C 416.341 455.135 405.877 468.838 400.241 479.221 C 398.088 483.190 408.906 482.430 424.710 493.137 C 436.200 500.922 441.237 514.725 449.165 518.592 C 461.255 524.490 485.439 527.935 496.561 525.817 C 501.594 524.859 510.877 518.913 515.819 515.826 C 528.671 507.796 552.008 482.064 560.607 481.498 C 566.741 481.094 573.023 489.105 578.478 492.133 C 598.592 503.296 623.800 521.651 646.887 526.772 C 672.793 532.519 736.705 526.568 772.511 514.222 C 791.764 507.583 818.181 485.553 830.816 479.452 C 843.327 473.409 876.365 465.970 893.678 455.627 C 910.260 445.722 942.366 413.507 942.371 413.503 C 942.364 413.507 889.832 439.106 866.319 447.614 C 852.553 452.596 827.176 451.990 819.424 461.110 C 804.107 479.130 752.599 502.721 720.130 509.017 C 701.551 512.620 675.513 510.888 657.095 506.537 C 636.197 501.600 610.530 483.518 592.024 476.720 C 579.310 472.049 576.470 443.647 563.536 444.289 C 551.657 444.879 548.085 467.514 539.781 476.029 C 536.566 479.326 530.871 482.242 527.932 485.787 C 525.992 488.127 524.753 492.169 522.918 494.593 C 516.294 503.350 501.407 519.054 496.377 519.795 C 496.377 519.790 490.065 472.362 487.852 474.130 C 485.046 474.228 466.130 468.178 466.128 468.177 Z"/>
<path fill="#000000" fill-rule="evenodd" fill-opacity="0.047059" stroke="none" d="M 466.128 468.177 C 463.212 470.506 448.527 486.558 448.525 486.559 C 452.578 483.703 452.358 440.097 449.514 421.521 C 446.462 401.592 443.235 373.022 431.173 356.867 C 429.399 354.490 425.979 352.209 423.374 350.791 C 423.378 350.793 457.134 362.790 462.974 376.831 C 470.278 394.391 469.500 416.865 471.181 431.140 C 472.248 440.196 477.526 454.998 474.219 465.852 C 473.483 468.268 467.201 465.890 466.128 468.177 Z"/>
<path fill="#000000" fill-rule="evenodd" fill-opacity="0.086275" stroke="none" d="M 448.525 486.559 C 446.911 484.902 442.539 441.566 437.910 422.707 C 435.901 414.525 430.882 404.228 429.462 395.923 C 428.405 389.736 430.485 381.008 428.609 375.019 C 425.470 364.991 408.986 346.010 408.984 346.008 C 408.986 346.008 419.379 348.615 423.374 350.791 C 425.979 352.209 429.399 354.490 431.173 356.867 C 443.235 373.022 446.462 401.592 449.514 421.521 C 452.358 440.097 452.578 483.703 448.525 486.559 Z"/>
<path fill="#000000" fill-rule="evenodd" fill-opacity="0.086275" stroke="none" d="M 214.641 640.089 C 215.505 642.042 235.108 648.809 235.147 648.788 C 235.272 648.720 214.281 600.132 217.127 578.572 C 221.012 549.137 269.317 530.420 269.323 530.415 C 269.319 530.417 238.347 536.659 227.446 544.138 C 217.782 550.768 205.006 563.724 202.524 574.222 C 198.100 592.935 210.788 631.375 214.641 640.089 M 277.401 601.563 C 278.064 577.960 309.088 550.305 309.091 550.299 C 309.089 550.300 287.843 556.509 281.440 561.173 C 270.365 569.240 252.484 579.519 250.060 601.874 C 247.543 625.086 265.040 646.580 273.051 650.031 C 277.103 651.776 299.457 644.439 299.460 644.438 C 299.457 644.434 276.858 620.856 277.401 601.563 Z"/>
<path fill="#000000" fill-rule="evenodd" fill-opacity="0.086275" stroke="none" d="M 794.797 203.900 C 794.251 190.289 783.302 179.096 783.300 179.094 C 783.301 179.096 789.529 194.715 790.074 202.687 C 790.614 210.584 786.618 226.752 786.618 226.754 C 786.619 226.752 795.275 215.813 794.797 203.900 M 775.308 204.021 C 769.601 192.118 751.609 192.178 751.607 192.177 C 751.609 192.178 764.574 198.773 767.706 204.607 C 771.914 212.448 768.928 231.911 768.928 231.914 C 768.929 231.911 781.384 216.693 775.308 204.021 Z"/>
</g>
<g id="Общая_Тень">
<path fill="#000000" fill-rule="evenodd" fill-opacity="0.031373" stroke="none" d="M 500.638 606.690 C 507.776 607.570 505.332 587.297 500.949 567.487 C 497.787 553.195 498.440 532.980 497.068 518.217 C 493.369 478.403 493.149 424.271 482.496 385.730 C 472.263 348.708 453.082 300.243 456.326 262.626 C 461.739 199.840 478.755 133.506 475.815 134.475 C 443.535 145.121 419.776 132.891 391.812 139.840 C 348.478 150.609 320.543 136.159 320.423 138.838 C 320.216 143.441 376.951 172.675 370.468 173.194 C 322.979 176.997 261.805 228.462 254.480 275.586 C 252.412 288.893 265.126 310.686 259.222 320.224 C 248.130 338.145 222.781 340.623 208.478 386.653 C 200.140 413.484 211.161 453.100 213.234 480.189 C 214.305 494.182 224.620 532.779 226.738 528.886 C 235.032 513.638 271.829 502.753 290.489 502.220 C 310.261 501.655 342.607 516.256 359.434 526.883 C 390.388 546.430 444.928 599.823 500.638 606.690 Z"/>
</g>
</g>
</svg>
